<?xml version="1.0" encoding="UTF-8" standalone="no"?>
<!-- Created with Inkscape (http://www.inkscape.org/) -->

<svg
   xmlns:dc="http://purl.org/dc/elements/1.1/"
   xmlns:cc="http://creativecommons.org/ns#"
   xmlns:rdf="http://www.w3.org/1999/02/22-rdf-syntax-ns#"
   xmlns:svg="http://www.w3.org/2000/svg"
   xmlns="http://www.w3.org/2000/svg"
   xmlns:xlink="http://www.w3.org/1999/xlink"
   xmlns:sodipodi="http://sodipodi.sourceforge.net/DTD/sodipodi-0.dtd"
   xmlns:inkscape="http://www.inkscape.org/namespaces/inkscape"
   width="5014.6187"
   height="2290.291"
   id="svg2970"
   sodipodi:version="0.32"
   inkscape:version="0.48.2 r9819"
   sodipodi:docname="logo-no-texture.svg"
   inkscape:output_extension="org.inkscape.output.svg.inkscape"
   version="1.0">
  <sodipodi:namedview
     id="base"
     pagecolor="#ffffff"
     bordercolor="#666666"
     borderopacity="1.0"
     gridtolerance="10000"
     guidetolerance="10"
     objecttolerance="10"
     inkscape:pageopacity="0.0"
     inkscape:pageshadow="2"
     inkscape:zoom="0.1397211"
     inkscape:cx="3992.0522"
     inkscape:cy="1787.7119"
     inkscape:document-units="px"
     inkscape:current-layer="layer2"
     showgrid="false"
     inkscape:window-width="1280"
     inkscape:window-height="713"
     inkscape:window-x="-1"
     inkscape:window-y="0"
     inkscape:window-maximized="0"
     fit-margin-top="0"
     fit-margin-left="0"
     fit-margin-right="0"
     fit-margin-bottom="0" />
  <defs
     id="defs2972">
    <inkscape:perspective
       sodipodi:type="inkscape:persp3d"
       inkscape:vp_x="0 : 526.18109 : 1"
       inkscape:vp_y="0 : 1000 : 0"
       inkscape:vp_z="744.09448 : 526.18109 : 1"
       inkscape:persp3d-origin="372.04724 : 350.78739 : 1"
       id="perspective2978" />
    <inkscape:perspective
       id="perspective2978-8"
       inkscape:persp3d-origin="372.04724 : 350.78739 : 1"
       inkscape:vp_z="744.09448 : 526.18109 : 1"
       inkscape:vp_y="0 : 1000 : 0"
       inkscape:vp_x="0 : 526.18109 : 1"
       sodipodi:type="inkscape:persp3d" />
  </defs>
  <metadata
     id="metadata2975">
    <rdf:RDF>
      <cc:Work
         rdf:about="">
        <dc:format>image/svg+xml</dc:format>
        <dc:type
           rdf:resource="http://purl.org/dc/dcmitype/StillImage" />
      </cc:Work>
    </rdf:RDF>
  </metadata>
  <g
     inkscape:label="shadow"
     inkscape:groupmode="layer"
     id="layer1"
     style="display:inline"
     transform="translate(-18.7962,103.56857)">
    <path
       sodipodi:type="inkscape:offset"
       inkscape:radius="0"
       inkscape:original="M 74.125 221.6875 C 74.031114 221.69665 73.937356 221.70707 73.84375 221.71875 C 65.764917 222.46104 56.490218 223.90069 48.78125 230.59375 C 40.979317 237.36751 38.636458 248.7624 41.375 259.78125 C 41.374985 259.79167 41.374985 259.80208 41.375 259.8125 C 45.00927 288.77291 44.951506 322.46994 40.8125 351.75 C 40.877771 351.28831 40.863567 351.35781 40.78125 351.9375 C 40.71574 352.42429 40.684413 352.91508 40.6875 353.40625 C 40.326818 357.38283 41.043152 361.44289 43.25 365.09375 C 45.638986 369.04594 49.017228 371.50208 52 373.0625 C 57.869614 376.13316 63.930146 376.94705 69.5625 377.1875 C 75.256157 377.43057 80.839974 376.9777 85.9375 375.78125 C 88.48114 375.18423 91.083617 374.35189 93.6875 372.96875 C 95.822556 371.83464 100.26778 368.72508 102.125 363.5 C 102.8078 364.9355 103.67252 366.38203 104.75 367.8125 C 104.76426 367.83037 104.76687 367.85722 104.78125 367.875 C 104.81205 367.92735 104.8433 367.97944 104.875 368.03125 C 103.46588 366.20171 103.52 366.36121 105.0625 368.3125 C 105.74632 369.16201 106.5581 369.9 107.46875 370.5 C 109.20763 371.98656 110.95319 373.16154 112.125 373.6875 C 114.15814 374.60007 116.24199 375.23648 118.34375 375.71875 C 122.39043 376.64731 126.73164 377.13184 131.21875 377.3125 C 135.70474 377.49312 140.31888 377.3689 144.75 376.71875 C 148.81742 376.12197 154.19954 375.22767 159.0625 371.03125 C 166.19708 364.87457 167.99837 355.68373 166.8125 348.59375 C 165.73006 342.12213 162.97819 337.12214 160.8125 333.40625 C 157.15528 326.48782 152.62408 322.02174 149.71875 318.4375 C 148.57525 317.02679 147.97226 315.91924 147.46875 315 C 147.85067 314.56314 148.38551 313.77625 152.53125 309.65625 C 157.93988 304.28118 165.40939 294.75999 166 280.96875 C 166.01643 280.58546 166.01643 280.22704 166 279.84375 C 165.3404 263.45041 160.13488 250.69998 151.125 242.3125 C 142.26605 234.06553 131.78285 230.63622 121.9375 227.28125 C 121.8855 227.27044 121.83341 227.26002 121.78125 227.25 C 121.3516 227.10729 120.91319 226.99246 120.46875 226.90625 C 105.519 222.27656 89.148288 222.11303 75.53125 221.6875 C 74.956949 221.65057 74.699301 221.65057 74.125 221.6875 z "
       style="font-size:205.44360352px;font-style:normal;font-variant:normal;font-weight:bold;font-stretch:normal;text-align:start;line-height:125%;writing-mode:lr-tb;text-anchor:start;fill:#000000;fill-opacity:1;stroke:none;font-family:Comic Sans MS;-inkscape-font-specification:Comic Sans MS Bold"
       id="path4715"
       d="m 74.125,221.6875 c -0.09389,0.009 -0.187644,0.0196 -0.28125,0.0312 -8.078833,0.74229 -17.353532,2.18194 -25.0625,8.875 -7.801933,6.77376 -10.144792,18.16865 -7.40625,29.1875 -1.5e-5,0.0104 -1.5e-5,0.0208 0,0.0312 3.63427,28.96041 3.576506,62.65744 -0.5625,91.9375 0.06527,-0.46169 0.05107,-0.39219 -0.03125,0.1875 -0.06551,0.48679 -0.09684,0.97758 -0.09375,1.46875 -0.360682,3.97658 0.355652,8.03664 2.5625,11.6875 2.388986,3.95219 5.767228,6.40833 8.75,7.96875 5.869614,3.07066 11.930146,3.88455 17.5625,4.125 5.693657,0.24307 11.277474,-0.2098 16.375,-1.40625 2.54364,-0.59702 5.146117,-1.42936 7.75,-2.8125 2.135056,-1.13411 6.58028,-4.24367 8.4375,-9.46875 0.6828,1.4355 1.54752,2.88203 2.625,4.3125 0.0143,0.0179 0.0169,0.0447 0.0312,0.0625 0.0308,0.0523 0.062,0.10444 0.0937,0.15625 -1.40912,-1.82954 -1.355,-1.67004 0.1875,0.28125 0.68382,0.84951 1.4956,1.5875 2.40625,2.1875 1.73888,1.48656 3.48444,2.66154 4.65625,3.1875 2.03314,0.91257 4.11699,1.54898 6.21875,2.03125 4.04668,0.92856 8.38789,1.41309 12.875,1.59375 4.48599,0.18062 9.10013,0.0564 13.53125,-0.59375 4.06742,-0.59678 9.44954,-1.49108 14.3125,-5.6875 7.13458,-6.15668 8.93587,-15.34752 7.75,-22.4375 -1.08244,-6.47162 -3.83431,-11.47161 -6,-15.1875 -3.65722,-6.91843 -8.18842,-11.38451 -11.09375,-14.96875 -1.1435,-1.41071 -1.74649,-2.51826 -2.25,-3.4375 0.38192,-0.43686 0.91676,-1.22375 5.0625,-5.34375 5.40863,-5.37507 12.87814,-14.89626 13.46875,-28.6875 0.0164,-0.38329 0.0164,-0.74171 0,-1.125 -0.6596,-16.39334 -5.86512,-29.14377 -14.875,-37.53125 -8.85895,-8.24697 -19.34215,-11.67628 -29.1875,-15.03125 -0.052,-0.0108 -0.10409,-0.0212 -0.15625,-0.0312 -0.42965,-0.14271 -0.86806,-0.25754 -1.3125,-0.34375 -14.94975,-4.62969 -31.320462,-4.79322 -44.9375,-5.21875 -0.574301,-0.0369 -0.831949,-0.0369 -1.40625,0 z"
       transform="matrix(6,0,0,6,-222.85596,-1250.4976)" />
    <path
       sodipodi:type="inkscape:offset"
       inkscape:radius="8.8865232"
       inkscape:original="M 199 275.375 C 196.35438 275.30151 193.54936 275.31129 190.625 275.4375 C 175.74622 275.74435 164.70375 281.47836 157.46875 290.625 C 150.23375 299.77164 146.78904 312.04342 146 325.5625 C 145.99218 325.68738 145.99218 325.81262 146 325.9375 C 147.26991 345.15038 154.95425 355.56774 167.78125 363.46875 C 167.86197 363.5249 167.94541 363.57704 168.03125 363.625 C 173.98183 366.48259 179.09768 368.14957 184.1875 368.59375 C 190.71946 369.16379 197.00598 367.65624 204.75 364.65625 C 214.30336 360.99374 222.8602 356.58955 227.65625 350.46875 C 230.05427 347.40835 231.46817 343.69485 231 339.78125 C 230.53183 335.86765 228.30113 332.02676 224.46875 328.28125 C 224.21454 328.03309 223.91827 327.83205 223.59375 327.6875 C 220.86909 326.46053 217.91816 326.5569 214.78125 327.0625 C 216.83237 326.16283 218.73355 325.20625 220.4375 324.125 C 227.44781 319.67656 231.11375 312.82694 231.375 302.84375 C 231.37636 302.79168 231.37636 302.73957 231.375 302.6875 C 231.20236 293.02239 227.91835 285.91211 222.0625 281.5625 C 216.20665 277.21289 208.32552 275.63403 199 275.375 z M 192.25 300.4375 C 193.89629 300.35031 195.38533 300.63699 196.40625 301.15625 C 197.42717 301.67551 198.03639 302.28753 198.40625 303.4375 C 198.42502 303.50067 198.44586 303.5632 198.46875 303.625 C 199.2842 305.68 198.93153 307.13232 197.78125 308.71875 C 196.63097 310.30518 194.48715 311.79076 192.125 312.59375 C 189.76285 313.39674 187.21936 313.49375 185.5 312.9375 C 183.78064 312.38125 182.79873 311.53291 182.34375 309.34375 C 182.33472 309.2914 182.3243 309.2393 182.3125 309.1875 C 181.67121 306.82698 182.45805 305.15201 184.40625 303.46875 C 186.35445 301.78549 189.50217 300.58303 192.25 300.4375 z "
       style="font-size:176.14732361px;font-style:normal;font-variant:normal;font-weight:bold;font-stretch:normal;text-align:start;line-height:125%;writing-mode:lr-tb;text-anchor:start;fill:#000000;fill-opacity:1;stroke:none;font-family:Comic Sans MS;-inkscape-font-specification:Comic Sans MS Bold"
       id="path4703"
       d="m 199.25,266.5 c -2.78257,-0.0773 -5.73447,-0.0655 -8.8125,0.0625 -0.0655,0.003 -0.1219,-0.003 -0.1875,0 -16.9835,0.40032 -30.93967,7.4243 -39.75,18.5625 -8.77664,11.09561 -12.51307,25.1776 -13.375,39.875 -6.1e-4,0.0104 6.1e-4,0.0208 0,0.0312 -0.0291,0.48451 -0.0303,0.9843 0,1.46875 a 8.8874119,8.8874119 0 0 0 0,0.0312 c 1.3978,21.14783 11.37092,35.30277 25.59375,44.21875 0.13723,0.0955 0.2654,0.19184 0.40625,0.28125 0.18796,0.11932 0.36852,0.23537 0.5625,0.34375 a 8.8874119,8.8874119 0 0 0 0.5,0.25 c 6.52654,3.13418 12.72436,5.24575 19.21875,5.8125 8.36304,0.72984 16.22578,-1.25438 24.53125,-4.46875 0.0127,-0.005 0.0185,-0.0264 0.0312,-0.0312 10.10741,-3.87691 20.01129,-8.47971 26.6875,-17 3.50461,-4.47265 5.95381,-10.55165 5.15625,-17.21875 -0.64802,-5.41703 -3.26594,-10.15189 -6.84375,-14.28125 4.48473,-5.81048 7.06866,-13.25125 7.28125,-21.375 0.005,-0.185 0.004,-0.34625 0,-0.53125 -3.8e-4,-0.0213 4.1e-4,-0.0412 0,-0.0625 -0.22214,-11.57337 -4.58962,-21.87703 -12.875,-28.03125 -8.09341,-6.01163 -17.93653,-7.6545 -28.125,-7.9375 z m -8.96875,39.78125 c 0.25704,0.43297 0.51639,0.80382 0.5625,0.9375 -0.24993,-0.30551 -0.44605,-0.44887 -0.59375,-0.6875 0.006,-0.0557 0.0211,-0.1687 0.0312,-0.25 z"
       transform="matrix(6.1744992,0,0,6.3239184,-234.78012,-1371.8306)" />
    <path
       sodipodi:type="inkscape:offset"
       inkscape:radius="14.207483"
       inkscape:original="M 267.3125 279.84375 C 251.914 280.68527 231.80098 287.05096 231.6875 304.96875 C 233.24646 326.851 266.62559 330.75542 268.25 336.09375 C 267.74994 345.10163 242.57061 324.9882 236.875 329.96875 C 226.67061 340.11163 230.48667 348.09028 238.5 353.96875 C 243.82351 357.87397 250.98694 360.84625 257.09375 362.90625 C 270.45141 366.40625 282.98235 362.65236 290.5 358.9375 C 298.89372 355.66456 301.91308 344.76656 301.5625 335.65625 C 297.70194 317.6543 269.72568 313.6216 267.25 306.9375 C 267.56085 296.32852 292.28514 319.77343 298.84375 312.4375 C 311.15201 290.04633 295.28773 285.59235 280.21875 280.625 C 277.04892 279.89607 272.44533 279.56324 267.3125 279.84375 z "
       style="font-size:182.18806458px;font-style:normal;font-variant:normal;font-weight:bold;font-stretch:normal;text-align:start;line-height:125%;writing-mode:lr-tb;text-anchor:start;fill:#000000;fill-opacity:1;stroke:none;font-family:Comic Sans MS;-inkscape-font-specification:Comic Sans MS Bold"
       id="path4649"
       d="m 266.53125,265.65625 c -9.31175,0.50888 -19.89909,2.40321 -29.75,7.96875 -9.85091,5.56554 -19.22216,16.98603 -19.3125,31.25 a 14.208904,14.208904 0 0 0 0.0625,1.09375 c 0.47671,6.69137 2.97853,12.69396 6.3125,17.53125 -5.19646,6.54912 -8.3429,14.54487 -7,22.4375 1.59478,9.37297 7.63879,15.38369 13.25,19.5 7.45252,5.46702 15.6285,8.63009 22.46875,10.9375 a 14.208904,14.208904 0 0 0 0.9375,0.28125 c 17.27108,4.5254 32.36856,0.1385 42.15625,-4.5 l 0,0.0312 c 0.10387,-0.0405 0.17831,-0.11464 0.28125,-0.15625 0.25316,-0.12127 0.59813,-0.22238 0.84375,-0.34375 l -0.0312,-0.0937 c 7.94365,-3.54032 13.04987,-10.28548 15.6875,-16.6875 2.7664,-6.71457 3.55643,-13.4425 3.3125,-19.78125 a 14.208904,14.208904 0 0 0 -0.28125,-2.4375 c -0.99019,-4.61731 -2.88094,-8.49657 -5.15625,-11.875 a 14.208904,14.208904 0 0 0 0.96875,-1.53125 c 3.79347,-6.90108 6.14056,-13.49187 6.15625,-20.53125 0.0157,-7.03938 -3.11151,-14.08093 -7.34375,-18.53125 -8.46448,-8.90065 -18.1118,-10.6789 -25.4375,-13.09375 a 14.208904,14.208904 0 0 0 -1.25,-0.34375 c -5.17726,-1.19056 -10.66855,-1.46418 -16.875,-1.125 z m 11.90625,32.1875 c 0.0738,0.037 0.3318,0.35806 0.53125,0.65625 -0.41504,-0.40173 -0.67217,-0.72688 -0.53125,-0.65625 z"
       transform="matrix(6,0,0,6,-198.85596,-1262.0794)" />
    <path
       sodipodi:type="inkscape:offset"
       inkscape:radius="6.0363092"
       inkscape:original="M 322.96875 241.4375 C 316.33103 241.71469 310.28285 243.64363 305.8125 247.71875 C 301.34215 251.79387 299.08725 257.7324 298.875 263.625 C 298.85149 264.11547 298.87241 264.60705 298.9375 265.09375 C 299.74132 270.60515 301.88797 275.68098 305.59375 279.46875 C 305.47189 279.55119 305.33964 279.60247 305.21875 279.6875 C 300.74155 282.83667 296.90025 289.11043 297.96875 295.75 C 300.44883 311.10446 300.36775 332.32926 297.03125 350 L 297.125 350.03125 C 295.6681 356.81925 299.36608 364.02947 304.21875 367.15625 C 309.20564 370.36951 314.759 371.29167 320.25 371.21875 C 325.741 371.14583 331.23935 370.07895 336.09375 366.78125 C 338.52095 365.1324 340.84972 362.7324 342.15625 359.46875 C 343.38274 356.40504 343.3363 352.79055 342.40625 349.5625 L 342.5 349.53125 C 338.66644 334.20637 339.60186 316.43271 343.5625 296.03125 C 343.62112 295.73175 343.66286 295.42919 343.6875 295.125 C 344.12489 289.805 341.90804 284.72624 338.625 281.21875 C 338.86773 281.01494 339.1397 280.87611 339.375 280.65625 C 343.6609 276.65149 345.44487 271.14398 346.34375 265.09375 C 346.44427 264.40009 346.45477 263.69635 346.375 263 C 345.75658 257.46881 343.60977 252.09501 339.59375 248.09375 C 335.57773 244.09249 329.89865 241.81616 323.8125 241.4375 C 323.53144 241.42291 323.24981 241.42291 322.96875 241.4375 z "
       style="font-size:179.68840027px;font-style:normal;font-variant:normal;font-weight:bold;font-stretch:normal;text-align:start;line-height:125%;writing-mode:lr-tb;text-anchor:start;fill:#000000;fill-opacity:1;stroke:none;font-family:Comic Sans MS;-inkscape-font-specification:Comic Sans MS Bold"
       id="path4717"
       d="m 322.65625,235.40625 c -7.63004,0.32922 -15.14919,2.59568 -20.90625,7.84375 -5.86464,5.34614 -8.63061,12.82928 -8.90625,20.09375 -5e-4,0.0104 4.8e-4,0.0209 0,0.0312 -3.8e-4,0.0102 3.7e-4,0.021 0,0.0312 -0.0363,0.83349 0.0144,1.67304 0.125,2.5 a 6.0369129,6.0369129 0 0 0 0,0.0625 c 0.64819,4.44429 2.11559,8.77979 4.46875,12.65625 -4.00647,4.57838 -6.5861,10.95645 -5.4375,18.09375 2.33715,14.46956 2.27006,35.33393 -0.90625,52.15625 A 6.0369129,6.0369129 0 0 0 291,350.34375 c -1.28558,9.08967 3.10466,17.47231 9.9375,21.875 6.26004,4.0336 13.18557,5.11386 19.40625,5.03125 6.21918,-0.0826 13.0499,-1.32058 19.15625,-5.46875 3.19482,-2.17031 6.40317,-5.44919 8.25,-10.0625 1.65358,-4.13057 1.67324,-8.42141 0.78125,-12.375 a 6.0369129,6.0369129 0 0 0 -0.1875,-1.28125 c -3.51082,-14.0347 -2.71328,-30.94286 1.15625,-50.875 0.10207,-0.52148 0.17582,-1.03257 0.21875,-1.5625 0.42449,-5.16312 -0.98156,-9.95178 -3.34375,-13.96875 3.50537,-4.75836 5.14317,-10.34095 5.9375,-15.6875 0.17357,-1.19777 0.19757,-2.42243 0.0625,-3.625 -0.001,-0.0101 0.001,-0.0211 0,-0.0312 -0.7464,-6.62538 -3.37073,-13.35844 -8.53125,-18.5 -5.22075,-5.20157 -12.30595,-7.94894 -19.65625,-8.40625 a 6.0369129,6.0369129 0 0 0 -0.0625,0 c -0.46871,-0.0243 -0.93747,-0.0223 -1.40625,0 -0.0208,9.9e-4 -0.0417,-0.001 -0.0625,0 z"
       transform="matrix(6,0,0,6,-186.85596,-1251.8288)" />
    <path
       sodipodi:type="inkscape:offset"
       inkscape:radius="13.642815"
       inkscape:original="M 404.59375 238.53125 C 401.06394 238.31589 397.38515 239.28946 394.4375 241.65625 C 391.89483 244.10753 389.33369 244.56458 392.59375 259.4375 C 392.98815 270.57119 394.18219 275.55275 377.625 275.03125 C 350.26405 275.68485 337.65409 297.90981 336.25 322.71875 C 336.5756 346.5575 352.6294 362.6953 375.9375 364.40625 C 384.09192 365.40563 388.17378 363.38338 394.0625 359.1875 C 396.43845 361.2276 399.85594 364.28124 402.90625 364.28125 C 412.59172 363.9554 417.18763 359.01714 416.625 350.09375 C 405.4005 324.18611 430.34832 254.92697 413.84375 242.53125 C 411.50896 240.13897 408.12356 238.74661 404.59375 238.53125 z M 375.8125 304.34375 C 392.40164 303.83101 390.69346 333.1916 376.1875 334.03125 C 360.89633 334.32945 360.21244 304.80237 375.8125 304.34375 z "
       style="font-size:167.25732422px;font-style:normal;font-variant:normal;font-weight:bold;font-stretch:normal;text-align:start;line-height:125%;writing-mode:lr-tb;text-anchor:start;fill:#000000;fill-opacity:1;stroke:none;font-family:Comic Sans MS;-inkscape-font-specification:Comic Sans MS Bold"
       id="path4653"
       d="m 405.4375,224.90625 c -6.59957,-0.40265 -13.68674,1.4322 -19.53125,6.125 a 13.644179,13.644179 0 0 0 -0.9375,0.8125 c 0.0714,-0.0688 -5.38185,4.532 -6.90625,10.84375 -1.38412,5.73091 -0.59708,10.75205 0.875,17.71875 0.006,0.47762 -0.0193,0.55311 -0.0312,0.96875 -0.45595,3.7e-4 -0.3189,0.0478 -0.84375,0.0312 a 13.644179,13.644179 0 0 0 -0.75,0 c -17.32125,0.41377 -31.93613,8.44587 -40.90625,20.0625 -8.97012,11.61663 -12.962,25.99334 -13.78125,40.46875 a 13.644179,13.644179 0 0 0 -0.0312,0.96875 c 0.40494,29.64745 22.91042,52.56041 51.6875,55 l 0,0.0312 c 0.0958,0.0118 0.18552,-0.0109 0.28125,0 0.12854,0.0103 0.24621,0.053 0.375,0.0625 l 0,-0.0625 c 6.5175,0.66471 12.62597,-0.66777 17.96875,-2.84375 2.40161,1.42468 5.32175,2.84373 10,2.84375 a 13.644179,13.644179 0 0 0 0.46875,-0.0312 c 7.08498,-0.23836 14.63358,-2.36052 20.09375,-8.0625 5.46017,-5.70198 7.21931,-13.64601 6.78125,-20.59375 a 13.644179,13.644179 0 0 0 -1.09375,-4.59375 c -1.19176,-2.75073 -2.21018,-10.44681 -1.75,-19.90625 0.46018,-9.45944 1.94704,-20.67105 3.34375,-31.8125 1.39671,-11.14145 2.74709,-22.12129 2.5625,-32.25 -0.17416,-9.55633 -0.97129,-20.02107 -9.71875,-27.6875 -0.10087,-0.10335 -0.21052,-0.18005 -0.3125,-0.28125 -0.42747,-0.36314 -0.78444,-0.7441 -1.25,-1.09375 L 422,231.65625 c -4.83231,-4.22277 -10.63989,-6.38865 -16.5625,-6.75 z"
       transform="matrix(6,0,0,6,-174.85596,-1254.8329)" />
    <path
       sodipodi:type="inkscape:offset"
       inkscape:radius="14.448946"
       inkscape:original="M 439.09375 274.96875 C 431.33791 275.379 423.24195 278.737 421.28125 285.28125 C 418.27354 314.86002 411.96745 360.9386 452.09375 363.90625 C 457.28498 363.90626 462.36129 361.37955 467.3125 359.875 C 470.07121 362.45589 470.58389 365.125 478.4375 364.625 C 494.96542 364.99353 492.43958 352.73839 492.15625 341.1875 C 487.8557 324.33196 489.46595 302.26538 491.53125 283.4375 C 490.7625 273.40965 465.88241 272.24614 461.21875 281.9375 C 458.02261 292.08973 465.38712 327.83265 456.3125 330.09375 C 448.01819 327.62464 456.52985 288.37186 454.71875 282.34375 C 454.23883 277.08073 446.84959 274.5585 439.09375 274.96875 z "
       style="font-size:166.08294678px;font-style:normal;font-variant:normal;font-weight:bold;font-stretch:normal;text-align:start;line-height:125%;writing-mode:lr-tb;text-anchor:start;fill:#000000;fill-opacity:1;stroke:none;font-family:Comic Sans MS;-inkscape-font-specification:Comic Sans MS Bold"
       id="path4655"
       d="m 438.34375,260.53125 c -5.68967,0.30096 -11.45967,1.54369 -17.0625,4.5 -5.60283,2.95631 -11.48921,8.23498 -13.84375,16.09375 a 14.450391,14.450391 0 0 0 -0.53125,2.6875 c -1.47743,14.52954 -4.31939,34.41391 -0.5625,53.53125 1.87844,9.55867 5.63404,19.37129 13.1875,27.21875 7.55346,7.84746 18.69782,12.80318 31.5,13.75 a 14.450391,14.450391 0 0 0 1.0625,0.0312 c 5.15535,10e-6 9.22425,-0.9679 12.5,-2.0625 4.03329,2.12031 8.84883,2.8933 13.53125,2.75 l 0,0.0312 c 0.35617,0.008 0.70673,-0.0313 1.0625,-0.0312 0.0523,0 0.10399,1.7e-4 0.15625,0 5.49213,-0.0183 10.92172,-0.96908 15.8125,-3.96875 5.25406,-3.22248 8.76377,-8.73528 10.21875,-13.375 2.90995,-9.27943 1.33768,-15.99531 1.21875,-20.84375 a 14.450391,14.450391 0 0 0 -0.4375,-3.21875 c -3.34013,-13.09129 -2.27063,-34.20432 -0.25,-52.625 a 14.450391,14.450391 0 0 0 0.0312,-2.65625 c -0.64459,-8.40832 -6.72222,-14.61639 -11.90625,-17.4375 -5.18403,-2.82111 -10.31934,-3.78124 -15.5,-4.03125 -5.18066,-0.25001 -10.41027,0.28912 -15.6875,2.21875 -1.41284,0.51661 -2.86157,1.17947 -4.3125,1.96875 -1.07802,-0.67854 -2.15877,-1.3701 -3.1875,-1.8125 -5.73304,-2.46548 -11.32064,-3.01916 -17,-2.71875 z"
       transform="matrix(6,0,0,6,-162.85596,-1261.4494)" />
    <path
       sodipodi:type="inkscape:offset"
       inkscape:radius="14.716772"
       inkscape:original="M 535.625 276.875 C 524.23732 276.87509 513.96588 281.58887 505.78125 290.5625 C 497.58215 299.49987 493.24998 310.91716 493.25 323.59375 C 493.515 348.67338 502.54772 362.79524 528.0625 365.4375 C 533.96042 365.27062 539.428 362.72834 544.625 360.15625 C 547.33997 363.17986 550.30423 365.80065 554.5 366.1875 C 562.56066 365.86763 567.20786 359.43056 567.8125 351.875 C 565.36267 340.71226 563.48978 331.0348 562.875 319.375 C 562.5999 311.70106 563.18892 304.05368 563.625 296.96875 C 562.73982 283.25516 547.15188 278.32745 535.625 276.875 z M 530.0625 306.3125 C 546.05089 307.22536 544.88029 336.17235 530.21875 335.875 C 515.51961 335.62628 516.08454 306.96928 530.0625 306.3125 z "
       style="font-size:162.06369019px;font-style:normal;font-variant:normal;font-weight:bold;font-stretch:normal;text-align:start;line-height:125%;writing-mode:lr-tb;text-anchor:start;fill:#000000;fill-opacity:1;stroke:none;font-family:Comic Sans MS;-inkscape-font-specification:Comic Sans MS Bold"
       id="path4657"
       d="m 535.625,262.15625 c -15.43425,1.2e-4 -30.10318,6.88147 -40.6875,18.46875 -0.01,0.0109 -0.0213,0.0203 -0.0312,0.0312 -10.65496,11.63126 -16.37503,26.92291 -16.375,42.9375 a 14.718244,14.718244 0 0 0 0,0.15625 c 0.15086,14.27714 2.7126,27.59189 11.0625,38.25 8.3499,10.65811 21.68507,16.48299 36.9375,18.0625 a 14.718244,14.718244 0 0 0 1.9375,0.0937 c 5.42687,-0.15355 9.95594,-1.41398 13.96875,-2.9375 3.00308,1.76766 6.50498,3.23649 10.71875,3.625 a 14.718244,14.718244 0 0 0 1.9375,0.0625 c 7.82663,-0.31058 15.32803,-4.13353 20,-9.53125 4.67197,-5.39772 6.86003,-11.87746 7.375,-18.3125 a 14.718244,14.718244 0 0 0 -0.28125,-4.34375 c -2.38452,-10.86514 -4.0255,-19.47629 -4.59375,-29.875 -0.23561,-6.5725 0.27264,-13.7209 0.71875,-20.96875 a 14.718244,14.718244 0 0 0 0,-1.84375 c -0.79298,-12.28513 -9.22928,-21.79274 -17.375,-26.46875 -8.14572,-4.67601 -16.47354,-6.39982 -23.46875,-7.28125 a 14.718244,14.718244 0 0 0 -1.84375,-0.125 z"
       transform="matrix(6,0,0,6,-150.85596,-1262.3098)" />
    <path
       sodipodi:type="inkscape:offset"
       inkscape:radius="12.46869"
       inkscape:original="M 585.25 244 C 577.31785 243.75185 569.23125 246.68299 568.8125 253.375 C 572.21749 291.71092 572.52339 324.89278 570.40625 347.8125 L 570.4375 356.9375 C 572.75976 369.58418 600.33778 368.91608 601.40625 357.9375 C 599.54315 339.98035 597.15305 291.89787 600.8125 253.6875 C 600.96749 247.6749 593.18215 244.24815 585.25 244 z "
       style="font-size:167.99964905px;font-style:normal;font-variant:normal;font-weight:bold;font-stretch:normal;text-align:start;line-height:125%;writing-mode:lr-tb;text-anchor:start;fill:#000000;fill-opacity:1;stroke:none;font-family:Comic Sans MS;-inkscape-font-specification:Comic Sans MS Bold"
       id="path4659"
       d="m 585.625,231.53125 c -5.63202,-0.17619 -11.34247,0.56731 -17,3.40625 -5.65753,2.83894 -11.73528,9.43048 -12.25,17.65625 a 12.469937,12.469937 0 0 0 0.0312,1.875 c 3.35472,37.76991 3.59939,70.47487 1.59375,92.1875 a 12.469937,12.469937 0 0 0 -0.0625,1.1875 l 0.0312,9.125 a 12.469937,12.469937 0 0 0 0.21875,2.21875 c 1.37584,7.49259 6.82527,13.0345 12.09375,15.8125 5.26848,2.778 10.69551,3.71975 16.03125,3.75 5.33574,0.0303 10.62487,-0.8167 15.78125,-3.4375 5.15638,-2.6208 10.9519,-8.27685 11.71875,-16.15625 a 12.469937,12.469937 0 0 0 0,-2.5 c -1.74028,-16.77342 -4.10944,-65.07191 -0.59375,-101.78125 a 12.469937,12.469937 0 0 0 0.0625,-0.875 c 0.21765,-8.44358 -5.77444,-15.18214 -11.125,-18.1875 -5.35056,-3.00536 -10.89971,-4.10507 -16.53125,-4.28125 z"
       transform="matrix(6,0,0,6,-150.85596,-1259.3128)" />
    <flowRoot
       xml:space="preserve"
       id="flowRoot2984"
       style="font-size:40px;font-style:normal;font-weight:normal;fill:#000000;fill-opacity:1;stroke:none;font-family:Bitstream Vera Sans"><flowRegion
         id="flowRegion2986"><rect
           id="rect2988"
           width="31.428572"
           height="100"
           x="68.571426"
           y="320.93362" /></flowRegion><flowPara
         id="flowPara2990" /></flowRoot>    <flowRoot
       xml:space="preserve"
       id="flowRoot2992"
       style="font-size:40px;font-style:normal;font-weight:normal;fill:#000000;fill-opacity:1;stroke:none;font-family:Bitstream Vera Sans"><flowRegion
         id="flowRegion2994"><rect
           id="rect2996"
           width="31.428572"
           height="85.714287"
           x="80"
           y="320.93362" /></flowRegion><flowPara
         id="flowPara2998" /></flowRoot>    <g
       id="g4778"
       transform="translate(3025.0141,-504.22482)"
       style="display:inline">
      <g
         style="display:inline"
         inkscape:label="green"
         id="layer2-2" />
      <path
         style="fill:none"
         d="m 874.3414,2583.3168 c -45.9698,-8.9232 -49.5292,-11.9776 -67.1427,-57.6161 -9.2321,-23.9214 -28.6911,-74.0405 -43.2423,-111.3757 C 664.0911,2158.0912 590.9546,1913.0562 554.8575,1713.7639 546.4931,1667.5838 539.224,1614.1265 538.704,1594.97 l -0.9454,-34.83 22.3317,-10.8997 c 43.8868,-21.4205 136.9459,-17.6657 166.8198,6.7309 14.1406,11.548 17.7361,24.3406 62.9256,223.8885 39.309,173.5805 69.1866,272.5013 104.8613,347.1815 40.8204,85.4519 54.2074,81.5234 85.1022,-24.9739 20.8838,-71.9886 71.3016,-271.5036 109.4018,-432.928 27.3108,-115.7116 31.4509,-121.9006 89.8344,-134.2904 55.1424,-11.702 132.3239,4.4214 141.6334,29.5875 2.2724,6.1428 -0.1861,40.7816 -5.463,76.9753 -37.134,254.6921 -122.8987,542.191 -273.9056,918.182 -2.0994,5.2273 -11.8862,12.4318 -21.7483,16.01 -19.0191,6.9005 -121.385,12.3378 -145.2105,7.7131 z"
         id="path5306"
         inkscape:connector-curvature="0" />
      <path
         style="fill:none"
         d="m 874.3414,2583.3168 c -45.9698,-8.9232 -49.5292,-11.9776 -67.1427,-57.6161 -9.2321,-23.9214 -28.6911,-74.0405 -43.2423,-111.3757 C 664.0911,2158.0912 590.9546,1913.0562 554.8575,1713.7639 546.4931,1667.5838 539.224,1614.1265 538.704,1594.97 l -0.9454,-34.83 22.3317,-10.8997 c 43.8868,-21.4205 136.9459,-17.6657 166.8198,6.7309 14.1406,11.548 17.7361,24.3406 62.9256,223.8885 39.309,173.5805 69.1866,272.5013 104.8613,347.1815 40.8204,85.4519 54.2074,81.5234 85.1022,-24.9739 20.8838,-71.9886 71.3016,-271.5036 109.4018,-432.928 27.3108,-115.7116 31.4509,-121.9006 89.8344,-134.2904 55.1424,-11.702 132.3239,4.4214 141.6334,29.5875 2.2724,6.1428 -0.1861,40.7816 -5.463,76.9753 -37.134,254.6921 -122.8987,542.191 -273.9056,918.182 -2.0994,5.2273 -11.8862,12.4318 -21.7483,16.01 -19.0191,6.9005 -121.385,12.3378 -145.2105,7.7131 z"
         id="path5308"
         inkscape:connector-curvature="0" />
      <path
         sodipodi:type="inkscape:offset"
         inkscape:radius="26.804295"
         inkscape:original="M 1019.0938 491.09375 C 966.95222 491.09375 926.79075 505.59221 914.53125 528.84375 C 908.94205 539.44435 905.8774 602.50661 902.5 776.90625 C 895.1976 1153.9622 894.3699 1156.7973 820.375 1056.2812 C 774.34645 993.75501 734.15005 918.40669 650.53125 737.9375 C 608.15244 646.47397 581.83656 596.29708 572.15625 588.53125 C 561.38098 579.88701 550.45234 576.84375 530.21875 576.84375 C 494.59167 576.84375 443.52747 580.80138 448.46875 604.65625 L 450.90625 616.5 L 462 716.34375 C 458.4573 684.38745 544.92815 945.82075 637.15625 1108.4688 C 709.2273 1235.5688 822.58609 1417.1201 841.4375 1435.6562 C 857.1036 1451.0599 858.29395 1451.3094 898.90625 1448.375 C 942.97655 1445.1906 1002.665 1429.5921 1015.6562 1417.8438 C 1020.5904 1413.3815 1030.7928 1361.782 1043.2812 1278.3125 C 1081.7063 1021.4932 1096.2559 828.88719 1090.1562 657.375 C 1086.1327 544.23922 1081.525 507.52233 1070.0625 497.15625 C 1066.0959 493.56925 1045.2078 491.09375 1019.0938 491.09375 z "
         xlink:href="#path5719"
         style="fill:#000000;fill-opacity:1"
         id="path5721"
         d="m 1019.0938,464.28125 c -28.55524,0 -54.38496,3.82239 -76.3438,11.75 -21.95884,7.92761 -41.24771,20.0381 -51.9375,40.3125 -6.03968,11.45499 -5.44967,17.11703 -6.6875,28.25 -1.23783,11.13297 -2.26115,25.82648 -3.21875,45.5625 -1.9152,39.47205 -3.52822,98.92454 -5.21875,186.21875 -1.82542,94.25484 -3.23334,165.07783 -5.46875,216.21875 -1.50606,34.45515 -3.7219,59.66395 -6.0625,76.59375 -6.30901,-7.7879 -13.85848,-17.4676 -22.1875,-28.7813 -0.005,-0.01 0.005,-0.024 0,-0.031 -44.34446,-60.24294 -83.6966,-133.66049 -167.125,-313.71875 -21.29309,-45.95555 -38.57943,-81.60539 -52.03125,-107.25 -6.72591,-12.8223 -12.47023,-23.10689 -17.53125,-31.25 -5.06102,-8.14311 -7.55779,-13.48289 -16.34375,-20.53125 -15.28035,-12.25835 -35.79747,-17.59375 -58.71875,-17.59375 -18.80606,0 -41.55706,0.7539 -62.3125,5.71875 -10.37772,2.48243 -20.57625,5.61613 -30.53125,13.59375 -9.94832,7.97227 -18.26387,25.63858 -15.15625,40.71875 l 0,0.0312 2.21875,10.71875 10.9375,98.5 a 26.806975,26.806975 0 0 0 7.8125,15.75 c 1.74519,3.93241 3.55654,7.99378 6.84375,16.1875 8.89992,22.18401 22.32006,57.11339 38.75,98.15625 32.85988,82.08571 77.68189,188.72355 125.0625,272.28125 36.30871,64.0318 82.78756,141.3767 122.6875,205.2813 19.94997,31.9522 38.23532,60.5028 52.875,82.4687 14.63968,21.9659 22.51562,34.7889 33.25,45.3437 8.02347,7.8891 18.27808,17.1648 32.375,20.2813 14.09692,3.1165 25.43311,1.535 45.8125,0.062 24.30537,-1.7562 51.2895,-6.7086 74.875,-12.875 11.79275,-3.0832 22.66943,-6.4554 32.15625,-10.1562 9.4868,-3.7009 17.1173,-6.5682 25.75,-14.375 8.443,-7.6355 7.7955,-10.6011 9.125,-14.0313 1.3295,-3.4302 2.3363,-6.8255 3.4062,-10.75 2.1399,-7.849 4.3465,-17.7289 6.7813,-30.0313 4.8696,-24.6046 10.5611,-58.6332 16.8437,-100.625 38.5688,-257.7796 53.3351,-452.10616 47.1563,-625.8437 -2.021,-56.82816 -4.1238,-94.61235 -7.4375,-121.03125 -3.3137,-26.4189 -5.3856,-43.58027 -21.4688,-58.125 -8.5344,-7.71774 -12.7171,-7.3893 -17.375,-8.5625 -4.6578,-1.1732 -9.3768,-1.93891 -14.625,-2.5625 -10.4963,-1.24717 -23.0335,-1.875 -36.9374,-1.875 z M 488.65625,713.375 c -8.3e-4,-0.007 0.0726,0.45134 0.0625,1.5 a 26.806975,26.806975 0 0 0 -0.0625,-1.5 z m -47.90625,16 c 0.17533,0.35081 1.04762,2.51769 1.3125,3.09375 -1.4274,-1.63367 -1.15473,-2.62418 -1.3125,-3.09375 z" />
      <path
         sodipodi:type="inkscape:offset"
         inkscape:radius="-76.356903"
         inkscape:original="M 1019.0938 491.09375 C 966.95222 491.09375 926.79075 505.59221 914.53125 528.84375 C 908.94205 539.44435 905.8774 602.50661 902.5 776.90625 C 895.1976 1153.9622 894.3699 1156.7973 820.375 1056.2812 C 774.34645 993.75501 734.15005 918.40669 650.53125 737.9375 C 608.15244 646.47397 581.83656 596.29708 572.15625 588.53125 C 561.38098 579.88701 550.45234 576.84375 530.21875 576.84375 C 494.59167 576.84375 443.52747 580.80138 448.46875 604.65625 L 450.90625 616.5 L 462 716.34375 C 458.4573 684.38745 544.92815 945.82075 637.15625 1108.4688 C 709.2273 1235.5688 822.58609 1417.1201 841.4375 1435.6562 C 857.1036 1451.0599 858.29395 1451.3094 898.90625 1448.375 C 942.97655 1445.1906 1002.665 1429.5921 1015.6562 1417.8438 C 1020.5904 1413.3815 1030.7928 1361.782 1043.2812 1278.3125 C 1081.7063 1021.4932 1096.2559 828.88719 1090.1562 657.375 C 1086.1327 544.23922 1081.525 507.52233 1070.0625 497.15625 C 1066.0959 493.56925 1045.2078 491.09375 1019.0938 491.09375 z "
         xlink:href="#path5719"
         style="fill:#000000;fill-opacity:1"
         id="path5729"
         d="m 1003.1562,535.65625 c 0.085,0.3671 0.7225,1.43527 1.6563,2.84375 -0.9691,-2.4667 -1.7984,-3.4586 -1.6563,-2.84375 z m -14.06245,13.4375 c -0.19121,-0.18234 -1.33602,2.32134 -2,5.1875 1.44057,-3.18633 2.13184,-5.06177 2,-5.1875 z m 19.96875,18.75 c -9.45814,0.55178 -17.6234,1.73291 -23.6875,3.125 -0.472,6.63742 -0.94445,14.66988 -1.40625,24.1875 -1.80662,37.23422 -3.44151,96.28781 -5.125,183.21875 -1.8261,94.29006 -3.22989,165.35407 -5.5625,218.71875 -2.33261,53.36465 -3.53016,85.99435 -13.5625,120.12505 -5.01617,17.0653 -10.85413,43.766 -48.75,62.625 -18.94794,9.4294 -43.37159,10.2389 -59.625,5.9687 -16.25341,-4.2702 -26.21286,-10.9818 -33.875,-16.75 -30.64855,-23.0728 -39.95314,-42.1782 -58.59375,-67.5 C 708.0663,1032.5429 665.38469,951.61385 581.25,770.03125 561.53831,727.48875 545.78038,695.0967 533.90625,672.1875 l 1.90625,17.125 c 3.37243,7.30783 6.25862,14.28335 9.96875,23.53125 9.47566,23.61912 22.65245,57.92816 38.78125,98.21875 32.2576,80.58119 76.49398,184.78888 119,259.75 35.25732,62.1776 81.31906,138.8283 120.46875,201.5313 19.57484,31.3514 37.48429,59.2985 51.21875,79.9062 4.93935,7.4112 10.09247,14.2434 14.59375,20.125 1.28831,-0.071 2.15174,-0.054 3.5625,-0.1562 15.56801,-1.125 38.52442,-5.1551 56.21875,-9.7813 0.83262,-0.2177 1.47061,-0.4359 2.28125,-0.6563 4.3011,-21.8605 9.7913,-54.3281 15.84375,-94.7812 38.0158,-254.0836 51.968,-441.73337 46.0938,-606.90625 -1.453,-40.85385 -3.0633,-71.17667 -4.7813,-92.25 z M 1041,568.375 c 2.2203,0.39113 3.6597,0.1791 4.4375,0.375 2.0149,0.50751 0.7717,0.1211 -1.5625,-0.15625 -0.6607,-0.0785 -2.0323,-0.14032 -2.875,-0.21875 z m -66.15625,6.09375 c -0.16838,0.12149 -0.16838,0.12149 0,0 z m -1.3125,779.40625 c -0.25446,0.073 -1.10778,0.6251 -2.625,1.8125 1.754,-0.8249 3.06984,-1.9407 2.625,-1.8125 z m -25.59375,26 c -1.75118,3.5142 -1.22573,5.0368 -1.375,6.0938 0.0225,-0.08 0.0394,-0.072 0.0625,-0.1563 0.26057,-0.9558 0.94002,-4.398 1.3125,-5.9375 z" />
      <path
         sodipodi:type="inkscape:offset"
         inkscape:radius="72.43335"
         inkscape:original="M 1019.0938 491.09375 C 966.95222 491.09375 926.79075 505.59221 914.53125 528.84375 C 908.94205 539.44435 905.8774 602.50661 902.5 776.90625 C 895.1976 1153.9622 894.3699 1156.7973 820.375 1056.2812 C 774.34645 993.75501 734.15005 918.40669 650.53125 737.9375 C 608.15244 646.47397 581.83656 596.29708 572.15625 588.53125 C 561.38098 579.88701 550.45234 576.84375 530.21875 576.84375 C 494.59167 576.84375 443.52747 580.80138 448.46875 604.65625 L 450.90625 616.5 L 462 716.34375 C 458.4573 684.38745 544.92815 945.82075 637.15625 1108.4688 C 709.2273 1235.5688 822.58609 1417.1201 841.4375 1435.6562 C 857.1036 1451.0599 858.29395 1451.3094 898.90625 1448.375 C 942.97655 1445.1906 1002.665 1429.5921 1015.6562 1417.8438 C 1020.5904 1413.3815 1030.7928 1361.782 1043.2812 1278.3125 C 1081.7063 1021.4932 1096.2559 828.88719 1090.1562 657.375 C 1086.1327 544.23922 1081.525 507.52233 1070.0625 497.15625 C 1066.0959 493.56925 1045.2078 491.09375 1019.0938 491.09375 z "
         xlink:href="#path5719"
         style="fill:#000000;fill-opacity:1"
         id="path5735"
         d="m 1019.0938,418.65625 c -32.78443,0 -63.29989,4.16379 -91.8438,14.46875 -28.54391,10.30496 -58.32889,26.94049 -76.78125,61.9375 -13.94242,26.4435 -10.25942,31.62466 -11.6875,44.46875 -1.42808,12.84409 -2.45589,28.17532 -3.4375,48.40625 -1.96323,40.46186 -3.55636,100.10762 -5.25,187.5625 C 828.86687,838.84952 827.72263,887.95134 826.5,930.9375 798.83511,881.48807 765.59918,814.00724 716.25,707.5 694.78039,661.1635 677.2927,625.01813 663.21875,598.1875 c -7.03697,-13.41532 -13.1554,-24.41944 -19.1875,-34.125 -6.0321,-9.70556 -6.93987,-16.2894 -26.5625,-32.03125 -22.94937,-18.41066 -59.75345,-27.625 -87.25,-27.625 -20.49562,0 -45.11127,0.28126 -72.9375,6.9375 -13.91311,3.32812 -29.45021,7.15919 -48.4375,22.375 -18.9687,15.20091 -37.59938,54.92628 -31.3125,85.53125 0.006,0.03 -0.006,0.0638 0,0.0937 l 0.0312,0 1.6875,8.28125 10.75,96.71875 a 72.440593,72.440593 0 0 0 13.09375,33.28125 c -0.04,-0.246 -0.13139,-0.49165 -0.15625,-0.71875 0.14511,0.33665 0.33375,0.76914 0.5,1.15625 a 72.440593,72.440593 0 0 0 12.375,13.0625 c -5.4644,-3.36177 -8.73703,-6.20247 -10.46875,-8.53125 1.11731,2.66178 1.0286,2.34686 2.34375,5.625 8.64526,21.54925 22.15562,56.74941 38.71875,98.125 33.12627,82.75118 78.21332,190.48375 127.75,277.84375 36.77374,64.8519 83.42446,142.5015 123.65625,206.9375 20.1159,32.218 38.58493,61.0583 53.625,83.625 15.04007,22.5667 18.23389,31.9286 39.21875,52.5625 8.34762,8.2078 28.91904,26.6502 54.53125,32.3125 25.61221,5.6623 38.43344,2.4815 58.9375,1 28.16998,-2.0355 56.93379,-7.3711 83.125,-14.2188 13.0956,-3.4238 25.3903,-7.1982 37.2188,-11.8124 11.8284,-4.6143 21.9817,-6.9347 39.7812,-23.0313 21.7655,-19.6839 18.7587,-25.5432 21.0312,-31.4063 2.2726,-5.863 3.5858,-10.3751 4.9063,-15.2187 2.641,-9.6872 4.945,-20.2468 7.5,-33.1563 5.1099,-25.8189 10.8706,-60.3206 17.2187,-102.75 38.8134,-259.4144 53.9386,-456.69294 47.625,-634.2187 -2.0367,-57.27122 -4.0515,-95.60739 -7.75,-125.09375 -3.6984,-29.48636 -2.4198,-55.80008 -36.125,-86.28125 -21.3746,-19.32914 -29.2656,-17.05217 -36.875,-18.96875 -7.6093,-1.91658 -13.8067,-2.84827 -20.3437,-3.625 -13.0741,-1.55346 -26.998,-2.1875 -42.3437,-2.1875 z M 534,708.375 c 0.16309,1.4711 1.05844,3.27219 0.0312,12.4375 A 72.440593,72.440593 0 0 0 534,708.375 z m -0.59375,17.9375 c -0.51236,4.90785 -0.92628,11.98198 -7.4375,22.625 a 72.440593,72.440593 0 0 0 7.4375,-22.625 z m 284.03125,345.9687 c -0.15057,0.8814 -0.40666,2.7576 -0.46875,2.9688 -0.085,0.2891 -0.12105,-0.9257 0.46875,-2.9688 z" />
      <path
         sodipodi:type="inkscape:offset"
         inkscape:radius="95.23587"
         inkscape:original="M 1729.375 462.6875 C 1698.2169 463.81512 1652.9726 484.39554 1635.9375 507 C 1610.5378 540.70414 1584.3486 629.92421 1565.6562 746.375 C 1559.3329 785.76866 1550.6164 834.27772 1546.2812 854.1875 C 1533.8454 911.30016 1528.4107 908.44967 1465.8125 811.625 C 1419.7929 740.44359 1358.8425 655.04962 1332.5938 624.96875 C 1297.4853 584.73504 1278.0037 569.24588 1253.6562 562.28125 C 1225.2906 554.16722 1183.38 556.85351 1164.125 568 C 1139.2322 582.41013 1139.1129 580.81137 1185.5 832.875 C 1208.1762 956.0957 1240.9143 1122.5423 1258.25 1202.75 C 1293.2017 1364.4599 1292.5077 1362.6836 1321.1562 1365.1875 C 1329.2213 1365.8924 1353.0642 1362.7325 1374.1562 1358.1562 C 1426.4874 1346.8018 1435.9278 1338.1307 1435.8438 1301.4062 C 1435.7542 1262.1155 1424.9939 1211.7068 1399.6562 1131.9062 C 1382.4918 1077.8499 1374.7877 1046.4012 1367.2188 999.5 C 1346.966 874.00158 1367.8829 887.88768 1466 1065.0625 C 1517.2531 1157.6131 1526.4885 1174.5882 1539.75 1177.625 C 1559.579 1188.1033 1601.7709 1182.3025 1622.7188 1160.4375 C 1628.4128 1152.4321 1630.5249 1089.2163 1637.0312 1036.2188 C 1650.9127 923.14511 1663.8346 863.13339 1674.7188 861.15625 C 1685.6133 859.17728 1690.0367 871.03762 1707.5938 949.4375 C 1719.5718 1002.9246 1724.6171 1035.4624 1727.875 1080.3438 C 1735.0073 1178.6 1754.3575 1257.4839 1774.5 1270.3125 C 1788.8024 1279.4213 1810.9329 1280.5373 1847.0938 1273.9688 C 1890.0913 1266.1583 1911.64 1253.6147 1912.75 1235.75 C 1913.1589 1229.1671 1881.4635 1059.0043 1842.2812 857.625 C 1764.3212 456.94557 1767.1405 468.06131 1741.75 463.4375 C 1737.9975 462.75414 1733.8262 462.52641 1729.375 462.6875 z "
         xlink:href="#path5723"
         style="fill:#000000;fill-opacity:1"
         id="path5725"
         d="m 1725.9375,367.5 c -34.8412,1.26091 -62.0482,10.44903 -88.9375,23.03125 -26.8893,12.58222 -52.5786,26.58472 -77.125,59.15625 -27.5402,36.54442 -39.3565,72.79064 -52.9688,119.15625 -8.6329,29.40537 -16.48,62.49643 -23.625,98.1875 -29.2116,-41.86464 -57.4469,-80.05946 -78.9374,-104.6875 -38.6224,-44.26052 -77.1713,-78.08655 -124.5,-91.625 -28.7786,-8.23215 -54.481,-9.50354 -80.4376,-7.84375 -25.9565,1.65979 -50.3148,3.79769 -83,22.71875 -5.5338,3.20347 -35.9029,20.02017 -51.8437,53.28125 -15.9408,33.26108 -13.2369,57.41866 -11.4063,80.09375 3.6614,45.35019 15.4979,105.14539 38.6876,231.15625 22.8662,124.25348 55.4596,290.1497 73.3124,372.75 17.4636,80.7981 23.4493,117.3684 38.0938,155.1875 7.3223,18.9095 22.0869,47.1534 51.8125,65.0313 29.7256,17.8778 51.5901,16.4249 57.8125,16.9687 24.4386,2.136 29.9406,-0.3468 42.4062,-2 12.4657,-1.6532 25.6885,-3.942 39.0626,-6.8437 29.9152,-6.4908 59.7029,-9.58 94.7812,-41.8438 35.0783,-32.2638 42.0295,-81.6477 41.9688,-108.1875 -0.02,-8.5939 -0.498,-17.2757 -1.1563,-26.0313 24.8627,6.0854 46.3951,3.673 68.0937,-0.3124 20.3694,-3.7413 41.356,-10.2127 61.75,-22.8126 3.6058,12.1634 7.6871,23.8893 12.875,35.5938 8.2329,18.574 14.1787,39.7478 50.6876,63 a 95.245394,95.245394 0 0 0 0,0.031 c 48.8742,31.1267 96.0313,25.1287 140.7812,17 27.567,-5.0075 52.3211,-10.9523 79.4062,-26.7187 27.0852,-15.7664 61.4464,-53.6548 64.2813,-99.2813 1.599,-25.742 -0.525,-18.4134 -0.9375,-21.5312 -0.4125,-3.1178 -0.8478,-5.9086 -1.375,-9.2188 -1.0544,-6.6202 -2.4686,-14.9249 -4.2812,-25.2187 -3.6253,-20.5877 -8.7998,-48.9571 -15.2188,-83.4063 -12.8381,-68.8983 -30.6179,-161.94336 -50.25,-262.8437 -38.9704,-200.29052 -57.0786,-295.77847 -71.1562,-350.96875 -7.0389,-27.59514 -9.0011,-46.17629 -31.9688,-75.96875 -11.4839,-14.89623 -32.9886,-30.51923 -49.5938,-36.625 -16.6051,-6.10577 -24.2006,-6.1217 -24.2187,-6.125 -12.3221,-2.24396 -23.0329,-2.60619 -32.875,-2.25 z m -143.4687,446.46875 c 7.8834,5.0617 4.5615,4.68237 0,0 z m 16.9374,94.4375 c 0.01,0.0247 0.5306,1.96832 0.5938,2.1875 -0.4441,-1.37989 -0.6141,-2.24221 -0.5938,-2.1875 z m -143.9687,28 c -0.032,0.6732 1.5064,3.36072 0.875,8.78125 -0.4211,-4.76503 -0.8215,-9.90628 -0.875,-8.78125 z"
         transform="translate(0,57.256923)" />
    </g>
    <path
       style="fill:none"
       d="m 3833.5645,2185.0046 c -45.9698,-8.9231 -49.5292,-11.9775 -67.1427,-57.616 -9.2321,-23.9215 -28.6911,-74.0405 -43.2423,-111.3758 -99.8653,-256.2337 -173.0018,-501.2687 -209.0989,-700.561 -8.3644,-46.1802 -15.6335,-99.6375 -16.1535,-118.7939 l -0.9454,-34.83 22.3317,-10.8998 c 43.8868,-21.4204 136.9459,-17.6656 166.8198,6.731 14.1406,11.548 17.7361,24.3405 62.9256,223.8884 39.309,173.5806 69.1866,272.5013 104.8613,347.1815 40.8204,85.4519 54.2074,81.5234 85.1022,-24.9739 20.8838,-71.9886 71.3016,-271.5035 109.4018,-432.9279 27.3108,-115.7117 31.4509,-121.9006 89.8344,-134.2904 55.1424,-11.7021 132.3239,4.4213 141.6334,29.5875 2.2724,6.1427 -0.1861,40.7816 -5.463,76.9752 -37.134,254.6921 -122.8987,542.1911 -273.9056,918.182 -2.0994,5.2274 -11.8862,12.4319 -21.7483,16.0101 -19.0191,6.9004 -121.385,12.3377 -145.2105,7.713 z"
       id="path5304"
       inkscape:connector-curvature="0" />
  </g>
  <g
     inkscape:groupmode="layer"
     id="layer2"
     inkscape:label="green"
     style="display:inline"
     transform="translate(-18.7962,103.56857)">
    <path
       style="font-size:205.44360352px;font-style:normal;font-variant:normal;font-weight:bold;font-stretch:normal;text-align:start;line-height:125%;writing-mode:lr-tb;text-anchor:start;fill:#76bf00;fill-opacity:1;stroke:none;display:inline;font-family:Comic Sans MS;-inkscape-font-specification:Comic Sans MS Bold"
       d="m 227.66969,156.36127 c -84.62755,7.77564 -154.310707,36.4029 -122.1353,138.26304 22.81387,181.79694 22.24041,389.85408 -3.91578,574.05516 -16.387527,80.85102 201.99084,68.06748 212.75193,31.44618 -3.97869,-62.31882 -19.71801,-98.54376 29.08127,-134.04036 46.32727,-19.9725 64.00933,1.17546 84.05551,18.06798 38.57478,50.70978 14.05506,84.6684 43.11864,121.4379 16.23528,25.6776 173.56638,35.24604 208.20258,5.35722 38.80704,-33.48804 15.92652,-85.61274 -6.5289,-124.14174 -30.255,-57.23388 -95.59866,-103.51692 -96.96504,-153.9894 8.94546,-73.51176 112.4016,-88.33308 117.37584,-204.48654 C 685.91142,259.34809 599.86062,226.03657 482.7051,186.11383 408.79998,161.77057 312.2657,159.00487 227.66969,156.36127 z m 145.366,202.77984 c 62.46189,1.04922 76.40757,55.59216 76.03365,82.50558 2.26668,28.76706 -4.78362,98.07318 -73.70053,98.4273 -62.36742,-3.7365 -73.43972,-69.74946 -73.04817,-97.80342 1.41895,-29.59962 13.29621,-81.20478 70.71505,-83.12946 z"
       id="path4525"
       sodipodi:nodetypes="cccccccscccccccccc"
       inkscape:connector-curvature="0" />
    <path
       sodipodi:type="inkscape:offset"
       inkscape:radius="0"
       inkscape:original="M 198.90625 137.46875 C 196.32797 137.39713 193.59974 137.43951 190.75 137.5625 C 162.42164 138.14671 150.53072 158.61696 149 184.84375 C 150.22617 203.39486 156.99972 212.39648 169.34375 220 C 175.10433 222.76636 179.82177 224.28469 184.4375 224.6875 C 190.35391 225.20383 196.10264 223.86373 203.65625 220.9375 C 222.31879 213.78276 236.44031 203.27773 222.375 189.53125 C 216.15501 186.73025 208.55646 191.18484 190.34375 196.59375 C 185.3729 198.10028 181.50186 193.17459 189.09375 191.03125 C 216.47375 183.58238 227.88409 180.60319 228.375 161.84375 C 228.05139 143.72666 216.95423 137.97007 198.90625 137.46875 z M 192.09375 156.53125 C 196.2111 156.31319 200.02501 157.81627 201.25 161.625 C 205.96827 173.51536 182.02111 181.64397 179.40625 169.0625 C 177.49116 162.01328 185.2315 156.89469 192.09375 156.53125 z "
       style="font-size:176.14732361px;font-style:normal;font-variant:normal;font-weight:bold;font-stretch:normal;text-align:start;line-height:125%;writing-mode:lr-tb;text-anchor:start;fill:#76bf00;fill-opacity:1;stroke:none;display:inline;font-family:Comic Sans MS;-inkscape-font-specification:Comic Sans MS Bold"
       id="path4701"
       d="m 198.90625,137.46875 c -2.57828,-0.0716 -5.30651,-0.0292 -8.15625,0.0937 -28.32836,0.58421 -40.21928,21.05446 -41.75,47.28125 1.22617,18.55111 7.99972,27.55273 20.34375,35.15625 5.76058,2.76636 10.47802,4.28469 15.09375,4.6875 5.91641,0.51633 11.66514,-0.82377 19.21875,-3.75 18.66254,-7.15474 32.78406,-17.65977 18.71875,-31.40625 -6.21999,-2.801 -13.81854,1.65359 -32.03125,7.0625 -4.97085,1.50653 -8.84189,-3.41916 -1.25,-5.5625 27.38,-7.44887 38.79034,-10.42806 39.28125,-29.1875 -0.32361,-18.11709 -11.42077,-23.87368 -29.46875,-24.375 z m -6.8125,19.0625 c 4.11735,-0.21806 7.93126,1.28502 9.15625,5.09375 4.71827,11.89036 -19.22889,20.01897 -21.84375,7.4375 -1.91509,-7.04922 5.82525,-12.16781 12.6875,-12.53125 z"
       transform="matrix(6,0,0,6,-210.85596,-419.31281)" />
    <path
       sodipodi:type="inkscape:offset"
       inkscape:radius="0"
       inkscape:original="M 267.3125 140.3125 C 251.914 141.15401 231.80098 147.55096 231.6875 165.46875 C 233.24646 187.351 266.62559 191.25542 268.25 196.59375 C 267.74994 205.60163 242.57061 185.4882 236.875 190.46875 C 226.67061 200.61164 230.48667 208.59028 238.5 214.46875 C 243.82351 218.37399 250.98694 221.34625 257.09375 223.40625 C 270.45141 226.90624 282.98235 223.15236 290.5 219.4375 C 298.89372 216.16456 301.91308 205.26656 301.5625 196.15625 C 297.70194 178.15432 269.72568 174.1216 267.25 167.4375 C 267.56085 156.82853 292.28514 180.27343 298.84375 172.9375 C 311.15201 150.54635 295.28773 146.0611 280.21875 141.09375 C 277.04892 140.36481 272.44533 140.032 267.3125 140.3125 z "
       style="font-size:182.18806458px;font-style:normal;font-variant:normal;font-weight:bold;font-stretch:normal;text-align:start;line-height:125%;writing-mode:lr-tb;text-anchor:start;fill:#76bf00;fill-opacity:1;stroke:none;display:inline;font-family:Comic Sans MS;-inkscape-font-specification:Comic Sans MS Bold"
       id="path4705"
       d="m 267.3125,140.3125 c -15.3985,0.84151 -35.51152,7.23846 -35.625,25.15625 1.55896,21.88225 34.93809,25.78667 36.5625,31.125 -0.50006,9.00788 -25.67939,-11.10555 -31.375,-6.125 -10.20439,10.14289 -6.38833,18.12153 1.625,24 5.32351,3.90524 12.48694,6.8775 18.59375,8.9375 13.35766,3.49999 25.8886,-0.25389 33.40625,-3.96875 8.39372,-3.27294 11.41308,-14.17094 11.0625,-23.28125 -3.86056,-18.00193 -31.83682,-22.03465 -34.3125,-28.71875 0.31085,-10.60897 25.03514,12.83593 31.59375,5.5 12.30826,-22.39115 -3.55602,-26.8764 -18.625,-31.84375 -3.16983,-0.72894 -7.77342,-1.06175 -12.90625,-0.78125 z"
       transform="matrix(6,0,0,6,-198.85596,-419.31281)" />
    <path
       sodipodi:type="inkscape:offset"
       inkscape:radius="0"
       inkscape:original="M 323.3125 111.28125 C 312.696 111.72459 307.3047 117.19702 307 125.65625 C 308.42163 135.40366 313.52451 139.40527 323.3125 139.96875 C 332.8776 139.26897 336.73692 136.05092 338.28125 125.65625 C 337.36397 117.45202 332.33747 111.84275 323.3125 111.28125 z M 320.5 144.75 C 312.6597 145.15004 304.90251 149.36781 306 156.1875 C 308.66429 172.68244 308.57594 194.44537 305.03125 213.21875 C 300.92133 229.09174 339.59342 228.18558 334.59375 213.21875 C 330.33136 196.17961 331.48179 177.20746 335.5625 156.1875 C 336.25474 147.76765 328.3403 144.34996 320.5 144.75 z "
       style="font-size:179.68840027px;font-style:normal;font-variant:normal;font-weight:bold;font-stretch:normal;text-align:start;line-height:125%;writing-mode:lr-tb;text-anchor:start;fill:#76bf00;fill-opacity:1;stroke:none;display:inline;font-family:Comic Sans MS;-inkscape-font-specification:Comic Sans MS Bold"
       id="path4707"
       d="m 323.3125,111.28125 c -10.6165,0.44334 -16.0078,5.91577 -16.3125,14.375 1.42163,9.74741 6.52451,13.74902 16.3125,14.3125 9.5651,-0.69978 13.42442,-3.91783 14.96875,-14.3125 -0.91728,-8.20423 -5.94378,-13.8135 -14.96875,-14.375 z M 320.5,144.75 c -7.8403,0.40004 -15.59749,4.61781 -14.5,11.4375 2.66429,16.49494 2.57594,38.25787 -0.96875,57.03125 -4.10992,15.87299 34.56217,14.96683 29.5625,0 -4.26239,-17.03914 -3.11196,-36.01129 0.96875,-57.03125 0.69224,-8.41985 -7.2222,-11.83754 -15.0625,-11.4375 z"
       transform="matrix(6,0,0,6,-186.85596,-419.31281)" />
    <path
       sodipodi:type="inkscape:offset"
       inkscape:radius="0"
       inkscape:original="M 404.59375 98.65625 C 401.06394 98.440888 397.38515 99.414455 394.4375 101.78125 C 391.89483 104.23253 389.33369 104.68957 392.59375 119.5625 C 392.98815 130.69619 394.18219 135.67775 377.625 135.15625 C 350.26405 135.80984 337.65409 158.03481 336.25 182.84375 C 336.5756 206.68247 352.6294 222.85155 375.9375 224.5625 C 384.09192 225.56186 388.17378 223.50837 394.0625 219.3125 C 396.43845 221.35259 399.85594 224.40623 402.90625 224.40625 C 412.59172 224.08039 417.18763 219.14213 416.625 210.21875 C 405.4005 184.31109 430.34832 115.05197 413.84375 102.65625 C 411.50896 100.26397 408.12356 98.871612 404.59375 98.65625 z M 375.8125 164.46875 C 392.40164 163.95601 390.69346 193.3166 376.1875 194.15625 C 360.89633 194.45445 360.21244 164.92738 375.8125 164.46875 z "
       style="font-size:167.25732422px;font-style:normal;font-variant:normal;font-weight:bold;font-stretch:normal;text-align:start;line-height:125%;writing-mode:lr-tb;text-anchor:start;fill:#76bf00;fill-opacity:1;stroke:none;display:inline;font-family:Comic Sans MS;-inkscape-font-specification:Comic Sans MS Bold"
       id="path4709"
       d="m 404.59375,98.65625 c -3.52981,-0.215362 -7.2086,0.758205 -10.15625,3.125 -2.54267,2.45128 -5.10381,2.90832 -1.84375,17.78125 0.3944,11.13369 1.58844,16.11525 -14.96875,15.59375 -27.36095,0.65359 -39.97091,22.87856 -41.375,47.6875 0.3256,23.83872 16.3794,40.0078 39.6875,41.71875 8.15442,0.99936 12.23628,-1.05413 18.125,-5.25 2.37595,2.04009 5.79344,5.09373 8.84375,5.09375 9.68547,-0.32586 14.28138,-5.26412 13.71875,-14.1875 -11.2245,-25.90766 13.72332,-95.16678 -2.78125,-107.5625 -2.33479,-2.39228 -5.72019,-3.784638 -9.25,-4 z m -28.78125,65.8125 c 16.58914,-0.51274 14.88096,28.84785 0.375,29.6875 -15.29117,0.2982 -15.97506,-29.22887 -0.375,-29.6875 z"
       transform="matrix(6,0,0,6,-174.85596,-419.31281)" />
    <path
       style="font-size:166.08294678px;font-style:normal;font-variant:normal;font-weight:bold;font-stretch:normal;text-align:start;line-height:125%;writing-mode:lr-tb;text-anchor:start;fill:#76bf00;fill-opacity:1;stroke:none;display:inline;font-family:Comic Sans MS;-inkscape-font-specification:Comic Sans MS Bold"
       d="m 2364.742,452.98291 c -18.0462,177.47256 -55.8696,453.96996 184.8882,471.77586 31.1474,0 61.6847,-15.27684 91.392,-24.30414 16.5522,15.48528 19.6026,31.65942 66.7244,28.65942 99.1675,2.21118 84.0888,-71.30466 82.3887,-140.61 -25.8033,-101.13324 -16.2779,-233.55294 -3.8861,-346.52022 -4.6125,-60.16704 -153.9031,-67.1658 -181.885,-9.01764 -19.1769,60.91332 25.1835,275.30994 -29.2643,288.87654 -49.7659,-14.81472 1.2926,-250.22466 -9.574,-286.39332 -5.7591,-63.15624 -177.2555,-60.99756 -200.7839,17.5335 z"
       id="path4518"
       sodipodi:nodetypes="cccccccccc"
       inkscape:connector-curvature="0" />
    <path
       sodipodi:type="inkscape:offset"
       inkscape:radius="0"
       inkscape:original="M 535.625 135.46875 C 524.23732 135.46883 513.96588 140.18263 505.78125 149.15625 C 497.58215 158.09362 493.24998 169.51091 493.25 182.1875 C 493.515 207.26713 502.54772 221.42024 528.0625 224.0625 C 533.96042 223.89561 539.428 221.3221 544.625 218.75 C 547.33997 221.77362 550.30423 224.42565 554.5 224.8125 C 562.56066 224.49262 567.20786 218.05557 567.8125 210.5 C 565.36267 199.33728 563.48978 189.62856 562.875 177.96875 C 562.5999 170.29481 563.18892 162.64743 563.625 155.5625 C 562.73982 141.84892 547.15188 136.92119 535.625 135.46875 z M 530.0625 164.90625 C 546.05089 165.81912 544.88029 194.7661 530.21875 194.46875 C 515.51961 194.22004 516.08454 165.56304 530.0625 164.90625 z "
       style="font-size:162.06369019px;font-style:normal;font-variant:normal;font-weight:bold;font-stretch:normal;text-align:start;line-height:125%;writing-mode:lr-tb;text-anchor:start;fill:#76bf00;fill-opacity:1;stroke:none;display:inline;font-family:Comic Sans MS;-inkscape-font-specification:Comic Sans MS Bold"
       id="path4711"
       d="m 535.625,135.46875 c -11.38768,8e-5 -21.65912,4.71388 -29.84375,13.6875 -8.1991,8.93737 -12.53127,20.35466 -12.53125,33.03125 0.265,25.07963 9.29772,39.23274 34.8125,41.875 5.89792,-0.16689 11.3655,-2.7404 16.5625,-5.3125 2.71497,3.02362 5.67923,5.67565 9.875,6.0625 8.06066,-0.31988 12.70786,-6.75693 13.3125,-14.3125 -2.44983,-11.16272 -4.32272,-20.87144 -4.9375,-32.53125 -0.2751,-7.67394 0.31392,-15.32132 0.75,-22.40625 -0.88518,-13.71358 -16.47312,-18.64131 -28,-20.09375 z m -5.5625,29.4375 c 15.98839,0.91287 14.81779,29.85985 0.15625,29.5625 -14.69914,-0.24871 -14.13421,-28.90571 -0.15625,-29.5625 z"
       transform="matrix(6,0,0,6,-150.85596,-419.31281)" />
    <path
       sodipodi:type="inkscape:offset"
       inkscape:radius="0"
       inkscape:original="M 585.25 102.5 C 577.31785 102.25185 569.23125 105.18299 568.8125 111.875 C 572.21749 150.21092 572.52339 183.39278 570.40625 206.3125 L 570.4375 215.4375 C 572.75976 228.08419 600.33778 227.41608 601.40625 216.4375 C 599.54315 198.48034 597.15305 150.39787 600.8125 112.1875 C 600.96749 106.1749 593.18215 102.74815 585.25 102.5 z "
       style="font-size:167.99964905px;font-style:normal;font-variant:normal;font-weight:bold;font-stretch:normal;text-align:start;line-height:125%;writing-mode:lr-tb;text-anchor:start;fill:#71b900;fill-opacity:1;stroke:none;display:inline;font-family:Comic Sans MS;-inkscape-font-specification:Comic Sans MS Bold"
       id="path4713"
       d="m 585.25,102.5 c -7.93215,-0.24815 -16.01875,2.68299 -16.4375,9.375 3.40499,38.33592 3.71089,71.51778 1.59375,94.4375 l 0.0312,9.125 c 2.32226,12.64669 29.90028,11.97858 30.96875,1 -1.8631,-17.95716 -4.2532,-66.03963 -0.59375,-104.25 0.15499,-6.0126 -7.63035,-9.43935 -15.5625,-9.6875 z"
       transform="matrix(6,0,0,6,-150.85596,-419.31281)" />
    <path
       style="fill:none"
       d="m 3833.5645,2185.0046 c -45.9698,-8.9231 -49.5292,-11.9775 -67.1427,-57.616 -9.2321,-23.9215 -28.6911,-74.0405 -43.2423,-111.3758 -99.8653,-256.2337 -173.0018,-501.2687 -209.0989,-700.561 -8.3644,-46.1802 -15.6335,-99.6375 -16.1535,-118.7939 l -0.9454,-34.83 22.3317,-10.8998 c 43.8868,-21.4204 136.9459,-17.6656 166.8198,6.731 14.1406,11.548 17.7361,24.3405 62.9256,223.8884 39.309,173.5806 69.1866,272.5013 104.8613,347.1815 40.8204,85.4519 54.2074,81.5234 85.1022,-24.9739 20.8838,-71.9886 71.3016,-271.5035 109.4018,-432.9279 27.3108,-115.7117 31.4509,-121.9006 89.8344,-134.2904 55.1424,-11.7021 132.3239,4.4213 141.6334,29.5875 2.2724,6.1427 -0.1861,40.7816 -5.463,76.9752 -37.134,254.6921 -122.8987,542.1911 -273.9056,918.182 -2.0994,5.2274 -11.8862,12.4319 -21.7483,16.0101 -19.0191,6.9004 -121.385,12.3377 -145.2105,7.713 z"
       id="path5300"
       inkscape:connector-curvature="0" />
    <path
       style="fill:none"
       d="m 3833.5645,2185.0046 c -45.9698,-8.9231 -49.5292,-11.9775 -67.1427,-57.616 -9.2321,-23.9215 -28.6911,-74.0405 -43.2423,-111.3758 -99.8653,-256.2337 -173.0018,-501.2687 -209.0989,-700.561 -8.3644,-46.1802 -15.6335,-99.6375 -16.1535,-118.7939 l -0.9454,-34.83 22.3317,-10.8998 c 43.8868,-21.4204 136.9459,-17.6656 166.8198,6.731 14.1406,11.548 17.7361,24.3405 62.9256,223.8884 39.309,173.5806 69.1866,272.5013 104.8613,347.1815 40.8204,85.4519 54.2074,81.5234 85.1022,-24.9739 20.8838,-71.9886 71.3016,-271.5035 109.4018,-432.9279 27.3108,-115.7117 31.4509,-121.9006 89.8344,-134.2904 55.1424,-11.7021 132.3239,4.4213 141.6334,29.5875 2.2724,6.1427 -0.1861,40.7816 -5.463,76.9752 -37.134,254.6921 -122.8987,542.1911 -273.9056,918.182 -2.0994,5.2274 -11.8862,12.4319 -21.7483,16.0101 -19.0191,6.9004 -121.385,12.3377 -145.2105,7.713 z"
       id="path5302"
       inkscape:connector-curvature="0" />
    <path
       style="fill:#c87137;fill-opacity:1;display:inline"
       d="m 4285.7419,850.33267 c -21.3979,-88.70815 -110.4931,-599.17043 -120.5175,-678.53828 -16.113,-70.5997 63.85,-109.77194 114.7291,-85.00667 38.9959,20.50339 99.389,93.81163 205.4117,249.33936 54.2031,79.51212 68.4778,93.46907 78.6925,76.94123 2.4132,-3.90463 13.9304,-59.46174 25.5939,-123.46024 23.931,-131.31217 47.8724,-213.51973 74.4408,-255.60677 24.9655,-39.54792 80.7212,-60.558684 113.3393,-40.620259 12.6219,7.715355 35.6269,34.473019 69.6111,211.168089 65.0707,338.32365 127.7523,535.07503 108.2038,601.53134 -12.4426,42.29956 -120.6893,48.17251 -142.3001,26.2481 -36.8702,-37.40518 -28.0527,-54.53979 -41.9101,-175.51352 -11.5743,-101.04162 -35.0802,-223.37142 -47.3519,-246.42881 -19.1545,-35.98967 -37.0627,30.89587 -59.0319,220.47867 -6.5513,56.5348 -14.6002,96.47386 -20.6642,102.53787 -14.027,14.02709 -66.4864,19.96313 -79.677,9.01596 -5.86,-4.86347 -40.1466,-61.97568 -76.1923,-126.91611 -71.836,-129.4207 -93.9195,-160.34878 -106.0153,-148.47486 -9.7867,9.60729 1.352,102.65971 21.0592,175.92788 43.4831,161.66272 72.4596,198.81492 66.2515,236.8287 -6.0717,37.17858 -11.6481,49.72478 -77.7803,69.94918 -64.7705,10.7452 -89.7549,-39.0128 -105.8923,-99.40086 z"
       id="path5747"
       inkscape:connector-curvature="0"
       sodipodi:nodetypes="cccssssssssssssssssscc" />
    <path
       style="fill:#c87137;fill-opacity:1;display:inline"
       d="M 3849.0718,895.74488 C 3776.9654,795.80372 3747.4517,729.61701 3674.7509,601.04707 3578.7792,431.32269 3473.0675,159.72379 3473.0675,106.11633 c 0,-33.68048 20.4183,-46.96159 72.1984,-46.96159 66.9558,0 58.2404,-11.99495 181.6306,249.97739 90.3825,191.89301 115.8208,238.01199 155.7063,282.29232 20.9695,23.28007 28.0405,27.44287 33.2674,19.58509 8.3789,-12.59622 14.7829,-122.58557 21.7131,-372.92692 5.0038,-180.75456 6.6942,-199.23914 20.7079,-226.44849 16.7792,-32.578906 41.7696,-45.52189 87.894,-45.52189 20.911,0 30.6102,4.461772 42.7855,19.682067 15.6202,19.526737 15.7111,21.263606 11.5143,220.081293 -2.3265,110.21958 -2.9349,261.7179 -7.6643,330.70959 -12.8282,187.13514 4.1802,223.88628 -37.1254,351.57042 -49.3188,64.04434 -166.9385,77.97935 -206.6235,7.58927 z"
       id="path5745"
       inkscape:connector-curvature="0"
       sodipodi:nodetypes="csssssssssssscc" />
  </g>
</svg>
