<?xml version="1.0" encoding="UTF-8" standalone="no"?>
<!-- Created with Inkscape (http://www.inkscape.org/) -->
<svg
   xmlns:dc="http://purl.org/dc/elements/1.1/"
   xmlns:cc="http://creativecommons.org/ns#"
   xmlns:rdf="http://www.w3.org/1999/02/22-rdf-syntax-ns#"
   xmlns:svg="http://www.w3.org/2000/svg"
   xmlns="http://www.w3.org/2000/svg"
   xmlns:sodipodi="http://sodipodi.sourceforge.net/DTD/sodipodi-0.dtd"
   xmlns:inkscape="http://www.inkscape.org/namespaces/inkscape"
   width="3543.3071"
   height="5010.2363"
   id="svg2970"
   sodipodi:version="0.32"
   inkscape:version="0.46"
   sodipodi:docname="res_logo.svg"
   inkscape:output_extension="org.inkscape.output.svg.inkscape"
   version="1.0">
  <sodipodi:namedview
     id="base"
     pagecolor="#ffffff"
     bordercolor="#666666"
     borderopacity="1.0"
     gridtolerance="10000"
     guidetolerance="10"
     objecttolerance="10"
     inkscape:pageopacity="0.0"
     inkscape:pageshadow="2"
     inkscape:zoom="0.1767767"
     inkscape:cx="362.64958"
     inkscape:cy="4230.2461"
     inkscape:document-units="px"
     inkscape:current-layer="layer2"
     showgrid="false"
     inkscape:window-width="1280"
     inkscape:window-height="713"
     inkscape:window-x="0"
     inkscape:window-y="0" />
  <defs
     id="defs2972">
    <inkscape:perspective
       sodipodi:type="inkscape:persp3d"
       inkscape:vp_x="0 : 526.18109 : 1"
       inkscape:vp_y="0 : 1000 : 0"
       inkscape:vp_z="744.09448 : 526.18109 : 1"
       inkscape:persp3d-origin="372.04724 : 350.78739 : 1"
       id="perspective2978" />
  </defs>
  <metadata
     id="metadata2975">
    <rdf:RDF>
      <cc:Work
         rdf:about="">
        <dc:format>image/svg+xml</dc:format>
        <dc:type
           rdf:resource="http://purl.org/dc/dcmitype/StillImage" />
      </cc:Work>
    </rdf:RDF>
  </metadata>
  <g
     inkscape:label="shadow"
     inkscape:groupmode="layer"
     id="layer1"
     style="display:inline">
    <path
       sodipodi:type="inkscape:offset"
       inkscape:radius="0"
       inkscape:original="M 74.125 221.6875 C 74.031114 221.69665 73.937356 221.70707 73.84375 221.71875 C 65.764917 222.46104 56.490218 223.90069 48.78125 230.59375 C 40.979317 237.36751 38.636458 248.7624 41.375 259.78125 C 41.374985 259.79167 41.374985 259.80208 41.375 259.8125 C 45.00927 288.77291 44.951506 322.46994 40.8125 351.75 C 40.877771 351.28831 40.863567 351.35781 40.78125 351.9375 C 40.71574 352.42429 40.684413 352.91508 40.6875 353.40625 C 40.326818 357.38283 41.043152 361.44289 43.25 365.09375 C 45.638986 369.04594 49.017228 371.50208 52 373.0625 C 57.869614 376.13316 63.930146 376.94705 69.5625 377.1875 C 75.256157 377.43057 80.839974 376.9777 85.9375 375.78125 C 88.48114 375.18423 91.083617 374.35189 93.6875 372.96875 C 95.822556 371.83464 100.26778 368.72508 102.125 363.5 C 102.8078 364.9355 103.67252 366.38203 104.75 367.8125 C 104.76426 367.83037 104.76687 367.85722 104.78125 367.875 C 104.81205 367.92735 104.8433 367.97944 104.875 368.03125 C 103.46588 366.20171 103.52 366.36121 105.0625 368.3125 C 105.74632 369.16201 106.5581 369.9 107.46875 370.5 C 109.20763 371.98656 110.95319 373.16154 112.125 373.6875 C 114.15814 374.60007 116.24199 375.23648 118.34375 375.71875 C 122.39043 376.64731 126.73164 377.13184 131.21875 377.3125 C 135.70474 377.49312 140.31888 377.3689 144.75 376.71875 C 148.81742 376.12197 154.19954 375.22767 159.0625 371.03125 C 166.19708 364.87457 167.99837 355.68373 166.8125 348.59375 C 165.73006 342.12213 162.97819 337.12214 160.8125 333.40625 C 157.15528 326.48782 152.62408 322.02174 149.71875 318.4375 C 148.57525 317.02679 147.97226 315.91924 147.46875 315 C 147.85067 314.56314 148.38551 313.77625 152.53125 309.65625 C 157.93988 304.28118 165.40939 294.75999 166 280.96875 C 166.01643 280.58546 166.01643 280.22704 166 279.84375 C 165.3404 263.45041 160.13488 250.69998 151.125 242.3125 C 142.26605 234.06553 131.78285 230.63622 121.9375 227.28125 C 121.8855 227.27044 121.83341 227.26002 121.78125 227.25 C 121.3516 227.10729 120.91319 226.99246 120.46875 226.90625 C 105.519 222.27656 89.148288 222.11303 75.53125 221.6875 C 74.956949 221.65057 74.699301 221.65057 74.125 221.6875 z "
       style="font-size:205.44360352px;font-style:normal;font-variant:normal;font-weight:bold;font-stretch:normal;text-align:start;line-height:125%;writing-mode:lr-tb;text-anchor:start;fill:#000000;fill-opacity:1;stroke:none;stroke-width:1px;stroke-linecap:butt;stroke-linejoin:miter;stroke-opacity:1;font-family:Comic Sans MS;-inkscape-font-specification:Comic Sans MS Bold"
       id="path4715"
       d="M 74.125,221.6875 C 74.031114,221.69665 73.937356,221.70707 73.84375,221.71875 C 65.764917,222.46104 56.490218,223.90069 48.78125,230.59375 C 40.979317,237.36751 38.636458,248.7624 41.375,259.78125 C 41.374985,259.79167 41.374985,259.80208 41.375,259.8125 C 45.00927,288.77291 44.951506,322.46994 40.8125,351.75 C 40.877771,351.28831 40.863567,351.35781 40.78125,351.9375 C 40.71574,352.42429 40.684413,352.91508 40.6875,353.40625 C 40.326818,357.38283 41.043152,361.44289 43.25,365.09375 C 45.638986,369.04594 49.017228,371.50208 52,373.0625 C 57.869614,376.13316 63.930146,376.94705 69.5625,377.1875 C 75.256157,377.43057 80.839974,376.9777 85.9375,375.78125 C 88.48114,375.18423 91.083617,374.35189 93.6875,372.96875 C 95.822556,371.83464 100.26778,368.72508 102.125,363.5 C 102.8078,364.9355 103.67252,366.38203 104.75,367.8125 C 104.76426,367.83037 104.76687,367.85722 104.78125,367.875 C 104.81205,367.92735 104.8433,367.97944 104.875,368.03125 C 103.46588,366.20171 103.52,366.36121 105.0625,368.3125 C 105.74632,369.16201 106.5581,369.9 107.46875,370.5 C 109.20763,371.98656 110.95319,373.16154 112.125,373.6875 C 114.15814,374.60007 116.24199,375.23648 118.34375,375.71875 C 122.39043,376.64731 126.73164,377.13184 131.21875,377.3125 C 135.70474,377.49312 140.31888,377.3689 144.75,376.71875 C 148.81742,376.12197 154.19954,375.22767 159.0625,371.03125 C 166.19708,364.87457 167.99837,355.68373 166.8125,348.59375 C 165.73006,342.12213 162.97819,337.12214 160.8125,333.40625 C 157.15528,326.48782 152.62408,322.02174 149.71875,318.4375 C 148.57525,317.02679 147.97226,315.91924 147.46875,315 C 147.85067,314.56314 148.38551,313.77625 152.53125,309.65625 C 157.93988,304.28118 165.40939,294.75999 166,280.96875 C 166.01643,280.58546 166.01643,280.22704 166,279.84375 C 165.3404,263.45041 160.13488,250.69998 151.125,242.3125 C 142.26605,234.06553 131.78285,230.63622 121.9375,227.28125 C 121.8855,227.27044 121.83341,227.26002 121.78125,227.25 C 121.3516,227.10729 120.91319,226.99246 120.46875,226.90625 C 105.519,222.27656 89.148288,222.11303 75.53125,221.6875 C 74.956949,221.65057 74.699301,221.65057 74.125,221.6875 z"
       transform="matrix(6,0,0,6,-222.85596,-1250.4976)" />
    <path
       sodipodi:type="inkscape:offset"
       inkscape:radius="8.8865232"
       inkscape:original="M 199 275.375 C 196.35438 275.30151 193.54936 275.31129 190.625 275.4375 C 175.74622 275.74435 164.70375 281.47836 157.46875 290.625 C 150.23375 299.77164 146.78904 312.04342 146 325.5625 C 145.99218 325.68738 145.99218 325.81262 146 325.9375 C 147.26991 345.15038 154.95425 355.56774 167.78125 363.46875 C 167.86197 363.5249 167.94541 363.57704 168.03125 363.625 C 173.98183 366.48259 179.09768 368.14957 184.1875 368.59375 C 190.71946 369.16379 197.00598 367.65624 204.75 364.65625 C 214.30336 360.99374 222.8602 356.58955 227.65625 350.46875 C 230.05427 347.40835 231.46817 343.69485 231 339.78125 C 230.53183 335.86765 228.30113 332.02676 224.46875 328.28125 C 224.21454 328.03309 223.91827 327.83205 223.59375 327.6875 C 220.86909 326.46053 217.91816 326.5569 214.78125 327.0625 C 216.83237 326.16283 218.73355 325.20625 220.4375 324.125 C 227.44781 319.67656 231.11375 312.82694 231.375 302.84375 C 231.37636 302.79168 231.37636 302.73957 231.375 302.6875 C 231.20236 293.02239 227.91835 285.91211 222.0625 281.5625 C 216.20665 277.21289 208.32552 275.63403 199 275.375 z M 192.25 300.4375 C 193.89629 300.35031 195.38533 300.63699 196.40625 301.15625 C 197.42717 301.67551 198.03639 302.28753 198.40625 303.4375 C 198.42502 303.50067 198.44586 303.5632 198.46875 303.625 C 199.2842 305.68 198.93153 307.13232 197.78125 308.71875 C 196.63097 310.30518 194.48715 311.79076 192.125 312.59375 C 189.76285 313.39674 187.21936 313.49375 185.5 312.9375 C 183.78064 312.38125 182.79873 311.53291 182.34375 309.34375 C 182.33472 309.2914 182.3243 309.2393 182.3125 309.1875 C 181.67121 306.82698 182.45805 305.15201 184.40625 303.46875 C 186.35445 301.78549 189.50217 300.58303 192.25 300.4375 z "
       style="font-size:176.14732361px;font-style:normal;font-variant:normal;font-weight:bold;font-stretch:normal;text-align:start;line-height:125%;writing-mode:lr-tb;text-anchor:start;fill:#000000;fill-opacity:1;stroke:none;stroke-width:1px;stroke-linecap:butt;stroke-linejoin:miter;stroke-opacity:1;font-family:Comic Sans MS;-inkscape-font-specification:Comic Sans MS Bold"
       id="path4703"
       d="M 199.25,266.5 C 196.40822,266.42106 193.39917,266.42659 190.25,266.5625 C 173.18016,266.91454 159.34333,273.94508 150.5,285.125 C 141.71713,296.22849 137.98347,310.32258 137.125,325.03125 C 137.09402,325.52601 137.09402,326.00524 137.125,326.5 C 137.12498,326.51042 137.12498,326.52083 137.125,326.53125 C 138.5228,347.67908 148.49592,361.83402 162.71875,370.75 C 162.85598,370.84546 162.98415,370.94184 163.125,371.03125 C 163.31296,371.15057 163.49352,371.26662 163.6875,371.375 C 163.8515,371.46356 164.01825,371.54693 164.1875,371.625 C 170.71404,374.75918 176.91186,376.87075 183.40625,377.4375 C 191.78201,378.16845 199.64923,376.16044 207.96875,372.9375 C 218.08941,369.0575 227.97163,364.46852 234.65625,355.9375 C 238.16086,351.46485 240.61006,345.38585 239.8125,338.71875 C 239.16448,333.30172 236.54656,328.56686 232.96875,324.4375 C 237.45348,318.62702 240.03741,311.18625 240.25,303.0625 C 240.2554,302.85573 240.2554,302.67552 240.25,302.46875 C 240.04281,290.86944 235.67562,280.60304 227.375,274.4375 C 219.28159,268.42587 209.43847,266.783 199.25,266.5 z M 190.28125,306.28125 C 190.53829,306.71422 190.79764,307.08507 190.84375,307.21875 C 190.59382,306.91324 190.3977,306.76988 190.25,306.53125 C 190.25571,306.47552 190.27114,306.36255 190.28125,306.28125 z"
       transform="matrix(6.1744992,0,0,6.3239184,-234.78012,-1371.8306)" />
    <path
       sodipodi:type="inkscape:offset"
       inkscape:radius="14.207483"
       inkscape:original="M 267.3125 279.84375 C 251.914 280.68527 231.80098 287.05096 231.6875 304.96875 C 233.24646 326.851 266.62559 330.75542 268.25 336.09375 C 267.74994 345.10163 242.57061 324.9882 236.875 329.96875 C 226.67061 340.11163 230.48667 348.09028 238.5 353.96875 C 243.82351 357.87397 250.98694 360.84625 257.09375 362.90625 C 270.45141 366.40625 282.98235 362.65236 290.5 358.9375 C 298.89372 355.66456 301.91308 344.76656 301.5625 335.65625 C 297.70194 317.6543 269.72568 313.6216 267.25 306.9375 C 267.56085 296.32852 292.28514 319.77343 298.84375 312.4375 C 311.15201 290.04633 295.28773 285.59235 280.21875 280.625 C 277.04892 279.89607 272.44533 279.56324 267.3125 279.84375 z "
       style="font-size:182.18806458px;font-style:normal;font-variant:normal;font-weight:bold;font-stretch:normal;text-align:start;line-height:125%;writing-mode:lr-tb;text-anchor:start;fill:#000000;fill-opacity:1;stroke:none;stroke-width:1px;stroke-linecap:butt;stroke-linejoin:miter;stroke-opacity:1;font-family:Comic Sans MS;-inkscape-font-specification:Comic Sans MS Bold"
       id="path4649"
       d="M 266.53125,265.65625 C 257.2195,266.16513 246.63216,268.05946 236.78125,273.625 C 226.93034,279.19054 217.55909,290.61103 217.46875,304.875 C 217.47552,305.24025 217.49636,305.60511 217.53125,305.96875 C 218.00796,312.66012 220.50978,318.66271 223.84375,323.5 C 218.64729,330.04912 215.50085,338.04487 216.84375,345.9375 C 218.43853,355.31047 224.48254,361.32119 230.09375,365.4375 C 237.54627,370.90452 245.72225,374.06759 252.5625,376.375 C 252.87168,376.47949 253.18436,376.57329 253.5,376.65625 C 270.77108,381.18165 285.86856,376.79475 295.65625,372.15625 L 295.65625,372.1875 C 295.76012,372.147 295.83456,372.07286 295.9375,372.03125 C 296.19066,371.90998 296.53563,371.80887 296.78125,371.6875 L 296.75,371.59375 C 304.69365,368.05343 309.79987,361.30827 312.4375,354.90625 C 315.2039,348.19168 315.99393,341.46375 315.75,335.125 C 315.72671,334.30591 315.63261,333.49037 315.46875,332.6875 C 314.47856,328.07019 312.58781,324.19093 310.3125,320.8125 C 310.66767,320.32321 310.99124,319.81176 311.28125,319.28125 C 315.07472,312.38017 317.42181,305.78938 317.4375,298.75 C 317.45319,291.71062 314.32599,284.66907 310.09375,280.21875 C 301.62927,271.3181 291.98195,269.53985 284.65625,267.125 C 284.24503,266.99146 283.82793,266.87676 283.40625,266.78125 C 278.22899,265.59069 272.7377,265.31707 266.53125,265.65625 z M 278.4375,297.84375 C 278.51135,297.88077 278.7693,298.20181 278.96875,298.5 C 278.55371,298.09827 278.29658,297.77312 278.4375,297.84375 z"
       transform="matrix(6,0,0,6,-198.85596,-1262.0794)" />
    <path
       sodipodi:type="inkscape:offset"
       inkscape:radius="6.0363092"
       inkscape:original="M 322.96875 241.4375 C 316.33103 241.71469 310.28285 243.64363 305.8125 247.71875 C 301.34215 251.79387 299.08725 257.7324 298.875 263.625 C 298.85149 264.11547 298.87241 264.60705 298.9375 265.09375 C 299.74132 270.60515 301.88797 275.68098 305.59375 279.46875 C 305.47189 279.55119 305.33964 279.60247 305.21875 279.6875 C 300.74155 282.83667 296.90025 289.11043 297.96875 295.75 C 300.44883 311.10446 300.36775 332.32926 297.03125 350 L 297.125 350.03125 C 295.6681 356.81925 299.36608 364.02947 304.21875 367.15625 C 309.20564 370.36951 314.759 371.29167 320.25 371.21875 C 325.741 371.14583 331.23935 370.07895 336.09375 366.78125 C 338.52095 365.1324 340.84972 362.7324 342.15625 359.46875 C 343.38274 356.40504 343.3363 352.79055 342.40625 349.5625 L 342.5 349.53125 C 338.66644 334.20637 339.60186 316.43271 343.5625 296.03125 C 343.62112 295.73175 343.66286 295.42919 343.6875 295.125 C 344.12489 289.805 341.90804 284.72624 338.625 281.21875 C 338.86773 281.01494 339.1397 280.87611 339.375 280.65625 C 343.6609 276.65149 345.44487 271.14398 346.34375 265.09375 C 346.44427 264.40009 346.45477 263.69635 346.375 263 C 345.75658 257.46881 343.60977 252.09501 339.59375 248.09375 C 335.57773 244.09249 329.89865 241.81616 323.8125 241.4375 C 323.53144 241.42291 323.24981 241.42291 322.96875 241.4375 z "
       style="font-size:179.68840027px;font-style:normal;font-variant:normal;font-weight:bold;font-stretch:normal;text-align:start;line-height:125%;writing-mode:lr-tb;text-anchor:start;fill:#000000;fill-opacity:1;stroke:none;stroke-width:1px;stroke-linecap:butt;stroke-linejoin:miter;stroke-opacity:1;font-family:Comic Sans MS;-inkscape-font-specification:Comic Sans MS Bold"
       id="path4717"
       d="M 322.65625,235.40625 C 315.02621,235.73547 307.50706,238.00193 301.75,243.25 C 295.86882,248.61122 293.10611,256.12251 292.84375,263.40625 C 292.80281,264.26044 292.8554,265.05867 292.96875,265.90625 C 292.96864,265.92708 292.96864,265.94792 292.96875,265.96875 C 293.61694,270.41304 295.08434,274.74854 297.4375,278.625 C 293.43102,283.20339 290.8514,289.58145 292,296.71875 C 294.33715,311.18831 294.27006,332.05268 291.09375,348.875 C 291.00272,349.35893 290.97123,349.85218 291,350.34375 C 289.71442,359.43342 294.10466,367.81606 300.9375,372.21875 C 307.19754,376.25235 314.12307,377.33261 320.34375,377.25 C 326.56293,377.16741 333.39365,375.92942 339.5,371.78125 C 342.69482,369.61094 345.90317,366.33206 347.75,361.71875 C 349.40358,357.58818 349.42324,353.29734 348.53125,349.34375 C 348.51487,348.91118 348.45201,348.48163 348.34375,348.0625 C 344.83293,334.0278 345.63047,317.11964 349.5,297.1875 C 349.60207,296.66602 349.67582,296.15493 349.71875,295.625 C 350.1431,290.46361 348.73589,285.67028 346.375,281.65625 C 349.88038,276.89788 351.51817,271.3153 352.3125,265.96875 C 352.48757,264.76066 352.51392,263.52522 352.375,262.3125 C 351.63314,255.6773 349.01214,248.96189 343.84375,243.8125 C 338.623,238.61093 331.5378,235.86356 324.1875,235.40625 C 324.16667,235.40614 324.14583,235.40614 324.125,235.40625 C 323.65629,235.38192 323.18753,235.38399 322.71875,235.40625 L 322.65625,235.40625 z"
       transform="matrix(6,0,0,6,-186.85596,-1251.8288)" />
    <path
       sodipodi:type="inkscape:offset"
       inkscape:radius="13.642815"
       inkscape:original="M 404.59375 238.53125 C 401.06394 238.31589 397.38515 239.28946 394.4375 241.65625 C 391.89483 244.10753 389.33369 244.56458 392.59375 259.4375 C 392.98815 270.57119 394.18219 275.55275 377.625 275.03125 C 350.26405 275.68485 337.65409 297.90981 336.25 322.71875 C 336.5756 346.5575 352.6294 362.6953 375.9375 364.40625 C 384.09192 365.40563 388.17378 363.38338 394.0625 359.1875 C 396.43845 361.2276 399.85594 364.28124 402.90625 364.28125 C 412.59172 363.9554 417.18763 359.01714 416.625 350.09375 C 405.4005 324.18611 430.34832 254.92697 413.84375 242.53125 C 411.50896 240.13897 408.12356 238.74661 404.59375 238.53125 z M 375.8125 304.34375 C 392.40164 303.83101 390.69346 333.1916 376.1875 334.03125 C 360.89633 334.32945 360.21244 304.80237 375.8125 304.34375 z "
       style="font-size:167.25732422px;font-style:normal;font-variant:normal;font-weight:bold;font-stretch:normal;text-align:start;line-height:125%;writing-mode:lr-tb;text-anchor:start;fill:#000000;fill-opacity:1;stroke:none;stroke-width:1px;stroke-linecap:butt;stroke-linejoin:miter;stroke-opacity:1;font-family:Comic Sans MS;-inkscape-font-specification:Comic Sans MS Bold"
       id="path4653"
       d="M 405.4375,224.90625 C 398.83793,224.5036 391.75076,226.33845 385.90625,231.03125 C 385.58159,231.28773 385.26877,231.55884 384.96875,231.84375 C 385.04016,231.77491 379.5869,236.37575 378.0625,242.6875 C 376.67838,248.41841 377.46542,253.43955 378.9375,260.40625 C 378.94348,260.88387 378.9182,260.95936 378.90625,261.375 C 378.4503,261.37537 378.58735,261.42278 378.0625,261.40625 C 377.81255,261.39938 377.56245,261.39938 377.3125,261.40625 C 359.99125,261.82002 345.37637,269.85212 336.40625,281.46875 C 327.43613,293.08538 323.44425,307.46209 322.625,321.9375 C 322.60311,322.25994 322.59269,322.58307 322.59375,322.90625 C 322.99869,352.5537 345.50417,375.46666 374.28125,377.90625 L 374.28125,377.9375 C 374.3771,377.94925 374.46677,377.92661 374.5625,377.9375 C 374.69104,377.94777 374.80871,377.99055 374.9375,378 L 374.9375,377.9375 C 381.455,378.60221 387.56347,377.26973 392.90625,375.09375 C 395.30786,376.51843 398.228,377.93748 402.90625,377.9375 C 403.06267,377.92977 403.21894,377.91936 403.375,377.90625 C 410.45998,377.66789 418.00858,375.54573 423.46875,369.84375 C 428.92892,364.14177 430.68806,356.19774 430.25,349.25 C 430.15518,347.66682 429.78505,346.11229 429.15625,344.65625 C 427.96449,341.90552 426.94607,334.20944 427.40625,324.75 C 427.86643,315.29056 429.35329,304.07895 430.75,292.9375 C 432.14671,281.79605 433.49709,270.81621 433.3125,260.6875 C 433.13834,251.13117 432.34121,240.66643 423.59375,233 C 423.49288,232.89665 423.38323,232.81995 423.28125,232.71875 C 422.85378,232.35561 422.49681,231.97465 422.03125,231.625 L 422,231.65625 C 417.16769,227.43348 411.36011,225.2676 405.4375,224.90625 z"
       transform="matrix(6,0,0,6,-174.85596,-1254.8329)" />
    <path
       sodipodi:type="inkscape:offset"
       inkscape:radius="14.448946"
       inkscape:original="M 439.09375 274.96875 C 431.33791 275.379 423.24195 278.737 421.28125 285.28125 C 418.27354 314.86002 411.96745 360.9386 452.09375 363.90625 C 457.28498 363.90626 462.36129 361.37955 467.3125 359.875 C 470.07121 362.45589 470.58389 365.125 478.4375 364.625 C 494.96542 364.99353 492.43958 352.73839 492.15625 341.1875 C 487.8557 324.33196 489.46595 302.26538 491.53125 283.4375 C 490.7625 273.40965 465.88241 272.24614 461.21875 281.9375 C 458.02261 292.08973 465.38712 327.83265 456.3125 330.09375 C 448.01819 327.62464 456.52985 288.37186 454.71875 282.34375 C 454.23883 277.08073 446.84959 274.5585 439.09375 274.96875 z "
       style="font-size:166.08294678px;font-style:normal;font-variant:normal;font-weight:bold;font-stretch:normal;text-align:start;line-height:125%;writing-mode:lr-tb;text-anchor:start;fill:#000000;fill-opacity:1;stroke:none;stroke-width:1px;stroke-linecap:butt;stroke-linejoin:miter;stroke-opacity:1;font-family:Comic Sans MS;-inkscape-font-specification:Comic Sans MS Bold"
       id="path4655"
       d="M 438.34375,260.53125 C 432.65408,260.83221 426.88408,262.07494 421.28125,265.03125 C 415.67842,267.98756 409.79204,273.26623 407.4375,281.125 C 407.17571,282.00199 406.99783,282.90186 406.90625,283.8125 C 405.42882,298.34204 402.58686,318.22641 406.34375,337.34375 C 408.22219,346.90242 411.97779,356.71504 419.53125,364.5625 C 427.08471,372.40996 438.22907,377.36568 451.03125,378.3125 C 451.38491,378.33594 451.73932,378.34637 452.09375,378.34375 C 457.2491,378.34376 461.318,377.37585 464.59375,376.28125 C 468.62704,378.40156 473.44258,379.17455 478.125,379.03125 L 478.125,379.0625 C 478.48117,379.07044 478.83173,379.03123 479.1875,379.03125 C 479.23978,379.03125 479.29149,379.03142 479.34375,379.03125 C 484.83588,379.01292 490.26547,378.06217 495.15625,375.0625 C 500.41031,371.84002 503.92002,366.32722 505.375,361.6875 C 508.28495,352.40807 506.71268,345.69219 506.59375,340.84375 C 506.56936,339.7578 506.4226,338.67806 506.15625,337.625 C 502.81612,324.53371 503.88562,303.42068 505.90625,285 C 505.9982,284.11742 506.00866,283.22825 505.9375,282.34375 C 505.29291,273.93543 499.21528,267.72736 494.03125,264.90625 C 488.84722,262.08514 483.71191,261.12501 478.53125,260.875 C 473.35059,260.62499 468.12098,261.16412 462.84375,263.09375 C 461.43091,263.61036 459.98218,264.27322 458.53125,265.0625 C 457.45323,264.38396 456.37248,263.6924 455.34375,263.25 C 449.61071,260.78452 444.02311,260.23084 438.34375,260.53125 z"
       transform="matrix(6,0,0,6,-162.85596,-1261.4494)" />
    <path
       sodipodi:type="inkscape:offset"
       inkscape:radius="14.716772"
       inkscape:original="M 535.625 276.875 C 524.23732 276.87509 513.96588 281.58887 505.78125 290.5625 C 497.58215 299.49987 493.24998 310.91716 493.25 323.59375 C 493.515 348.67338 502.54772 362.79524 528.0625 365.4375 C 533.96042 365.27062 539.428 362.72834 544.625 360.15625 C 547.33997 363.17986 550.30423 365.80065 554.5 366.1875 C 562.56066 365.86763 567.20786 359.43056 567.8125 351.875 C 565.36267 340.71226 563.48978 331.0348 562.875 319.375 C 562.5999 311.70106 563.18892 304.05368 563.625 296.96875 C 562.73982 283.25516 547.15188 278.32745 535.625 276.875 z M 530.0625 306.3125 C 546.05089 307.22536 544.88029 336.17235 530.21875 335.875 C 515.51961 335.62628 516.08454 306.96928 530.0625 306.3125 z "
       style="font-size:162.06369019px;font-style:normal;font-variant:normal;font-weight:bold;font-stretch:normal;text-align:start;line-height:125%;writing-mode:lr-tb;text-anchor:start;fill:#000000;fill-opacity:1;stroke:none;stroke-width:1px;stroke-linecap:butt;stroke-linejoin:miter;stroke-opacity:1;font-family:Comic Sans MS;-inkscape-font-specification:Comic Sans MS Bold"
       id="path4657"
       d="M 535.625,262.15625 C 520.17618,262.15637 505.49284,269.04911 494.90625,280.65625 C 484.23212,292.2915 478.53122,307.56422 478.53125,323.59375 C 478.53097,323.64583 478.53097,323.69792 478.53125,323.75 C 478.68211,338.02714 481.24385,351.34189 489.59375,362 C 497.94365,372.65811 511.27882,378.48299 526.53125,380.0625 C 527.17432,380.13632 527.82156,380.16764 528.46875,380.15625 C 533.89562,380.0027 538.42469,378.74227 542.4375,377.21875 C 545.44058,378.98641 548.94248,380.45524 553.15625,380.84375 C 553.80001,380.90714 554.44724,380.92802 555.09375,380.90625 C 562.92038,380.59567 570.42178,376.77272 575.09375,371.375 C 579.76572,365.97728 581.95378,359.49754 582.46875,353.0625 C 582.59081,351.60865 582.49602,350.14472 582.1875,348.71875 C 579.78278,337.76157 578.11708,329.11172 577.5625,318.59375 C 577.32689,312.02125 577.86639,305.12285 578.3125,297.875 C 578.35103,297.26102 578.35103,296.64523 578.3125,296.03125 C 577.51952,283.74612 569.08322,274.23851 560.9375,269.5625 C 552.79178,264.88649 544.46396,263.16268 537.46875,262.28125 C 536.85739,262.201 536.24159,262.15925 535.625,262.15625 z"
       transform="matrix(6,0,0,6,-150.85596,-1262.3098)" />
    <path
       sodipodi:type="inkscape:offset"
       inkscape:radius="12.46869"
       inkscape:original="M 585.25 244 C 577.31785 243.75185 569.23125 246.68299 568.8125 253.375 C 572.21749 291.71092 572.52339 324.89278 570.40625 347.8125 L 570.4375 356.9375 C 572.75976 369.58418 600.33778 368.91608 601.40625 357.9375 C 599.54315 339.98035 597.15305 291.89787 600.8125 253.6875 C 600.96749 247.6749 593.18215 244.24815 585.25 244 z "
       style="font-size:167.99964905px;font-style:normal;font-variant:normal;font-weight:bold;font-stretch:normal;text-align:start;line-height:125%;writing-mode:lr-tb;text-anchor:start;fill:#000000;fill-opacity:1;stroke:none;stroke-width:1px;stroke-linecap:butt;stroke-linejoin:miter;stroke-opacity:1;font-family:Comic Sans MS;-inkscape-font-specification:Comic Sans MS Bold"
       id="path4659"
       d="M 585.625,231.53125 C 579.99298,231.35506 574.28253,232.09856 568.625,234.9375 C 562.96747,237.77644 556.88972,244.36798 556.375,252.59375 C 556.33834,253.21865 556.34879,253.84542 556.40625,254.46875 C 559.76097,292.23866 560.00564,324.94362 558,346.65625 C 557.96029,347.05086 557.93944,347.44715 557.9375,347.84375 L 557.96875,356.96875 C 557.97527,357.71338 558.04848,358.45593 558.1875,359.1875 C 559.56334,366.68009 565.01277,372.222 570.28125,375 C 575.54973,377.778 580.97676,378.71975 586.3125,378.75 C 591.64824,378.78025 596.93737,377.9333 602.09375,375.3125 C 607.25013,372.6917 613.04565,367.03565 613.8125,359.15625 C 613.89625,358.32502 613.89625,357.48748 613.8125,356.65625 C 612.07222,339.88283 609.70306,291.58434 613.21875,254.875 C 613.24984,254.58416 613.27069,254.29231 613.28125,254 C 613.4989,245.55642 607.50681,238.81786 602.15625,235.8125 C 596.80569,232.80714 591.25654,231.70743 585.625,231.53125 z"
       transform="matrix(6,0,0,6,-150.85596,-1259.3128)" />
    <flowRoot
       xml:space="preserve"
       id="flowRoot2984"
       style="font-size:40px;font-style:normal;font-weight:normal;fill:#000000;fill-opacity:1;stroke:none;stroke-width:1px;stroke-linecap:butt;stroke-linejoin:miter;stroke-opacity:1;font-family:Bitstream Vera Sans"><flowRegion
         id="flowRegion2986"><rect
           id="rect2988"
           width="31.428572"
           height="100"
           x="68.571426"
           y="320.93362" /></flowRegion><flowPara
         id="flowPara2990" /></flowRoot>    <flowRoot
       xml:space="preserve"
       id="flowRoot2992"
       style="font-size:40px;font-style:normal;font-weight:normal;fill:#000000;fill-opacity:1;stroke:none;stroke-width:1px;stroke-linecap:butt;stroke-linejoin:miter;stroke-opacity:1;font-family:Bitstream Vera Sans"><flowRegion
         id="flowRegion2994"><rect
           id="rect2996"
           width="31.428572"
           height="85.714287"
           x="80"
           y="320.93362" /></flowRegion><flowPara
         id="flowPara2998" /></flowRoot>  </g>
  <g
     inkscape:groupmode="layer"
     id="layer2"
     inkscape:label="green"
     style="display:inline">
    <path
       style="font-size:205.44360352px;font-style:normal;font-variant:normal;font-weight:bold;font-stretch:normal;text-align:start;line-height:125%;writing-mode:lr-tb;text-anchor:start;fill:#76bf00;fill-opacity:1;stroke:none;stroke-width:1px;stroke-linecap:butt;stroke-linejoin:miter;stroke-opacity:1;display:inline;font-family:Comic Sans MS;-inkscape-font-specification:Comic Sans MS Bold"
       d="M 227.66969,156.36127 C 143.04214,164.13691 73.358983,192.76417 105.53439,294.62431 C 128.34826,476.42125 127.7748,684.47839 101.61861,868.67947 C 85.231083,949.53049 303.60945,936.74695 314.37054,900.12565 C 310.39185,837.80683 294.65253,801.58189 343.45181,766.08529 C 389.77908,746.11279 407.46114,767.26075 427.50732,784.15327 C 466.0821,834.86305 441.56238,868.82167 470.62596,905.59117 C 486.86124,931.26877 644.19234,940.83721 678.82854,910.94839 C 717.63558,877.46035 694.75506,825.33565 672.29964,786.80665 C 642.04464,729.57277 576.70098,683.28973 575.3346,632.81725 C 584.28006,559.30549 687.7362,544.48417 692.71044,428.33071 C 685.91142,259.34809 599.86062,226.03657 482.7051,186.11383 C 408.79998,161.77057 312.2657,159.00487 227.66969,156.36127 z M 373.03569,359.14111 C 435.49758,360.19033 449.44326,414.73327 449.06934,441.64669 C 451.33602,470.41375 444.28572,539.71987 375.36881,540.07399 C 313.00139,536.33749 301.92909,470.32453 302.32064,442.27057 C 303.73959,412.67095 315.61685,361.06579 373.03569,359.14111 z"
       id="path4525"
       sodipodi:nodetypes="cccccccscccccccccc" />
    <path
       sodipodi:type="inkscape:offset"
       inkscape:radius="0"
       inkscape:original="M 198.90625 137.46875 C 196.32797 137.39713 193.59974 137.43951 190.75 137.5625 C 162.42164 138.14671 150.53072 158.61696 149 184.84375 C 150.22617 203.39486 156.99972 212.39648 169.34375 220 C 175.10433 222.76636 179.82177 224.28469 184.4375 224.6875 C 190.35391 225.20383 196.10264 223.86373 203.65625 220.9375 C 222.31879 213.78276 236.44031 203.27773 222.375 189.53125 C 216.15501 186.73025 208.55646 191.18484 190.34375 196.59375 C 185.3729 198.10028 181.50186 193.17459 189.09375 191.03125 C 216.47375 183.58238 227.88409 180.60319 228.375 161.84375 C 228.05139 143.72666 216.95423 137.97007 198.90625 137.46875 z M 192.09375 156.53125 C 196.2111 156.31319 200.02501 157.81627 201.25 161.625 C 205.96827 173.51536 182.02111 181.64397 179.40625 169.0625 C 177.49116 162.01328 185.2315 156.89469 192.09375 156.53125 z "
       style="font-size:176.14732361px;font-style:normal;font-variant:normal;font-weight:bold;font-stretch:normal;text-align:start;line-height:125%;writing-mode:lr-tb;text-anchor:start;fill:#76bf00;fill-opacity:1;stroke:none;stroke-width:1px;stroke-linecap:butt;stroke-linejoin:miter;stroke-opacity:1;display:inline;font-family:Comic Sans MS;-inkscape-font-specification:Comic Sans MS Bold"
       id="path4701"
       d="M 198.90625,137.46875 C 196.32797,137.39713 193.59974,137.43951 190.75,137.5625 C 162.42164,138.14671 150.53072,158.61696 149,184.84375 C 150.22617,203.39486 156.99972,212.39648 169.34375,220 C 175.10433,222.76636 179.82177,224.28469 184.4375,224.6875 C 190.35391,225.20383 196.10264,223.86373 203.65625,220.9375 C 222.31879,213.78276 236.44031,203.27773 222.375,189.53125 C 216.15501,186.73025 208.55646,191.18484 190.34375,196.59375 C 185.3729,198.10028 181.50186,193.17459 189.09375,191.03125 C 216.47375,183.58238 227.88409,180.60319 228.375,161.84375 C 228.05139,143.72666 216.95423,137.97007 198.90625,137.46875 z M 192.09375,156.53125 C 196.2111,156.31319 200.02501,157.81627 201.25,161.625 C 205.96827,173.51536 182.02111,181.64397 179.40625,169.0625 C 177.49116,162.01328 185.2315,156.89469 192.09375,156.53125 z"
       transform="matrix(6,0,0,6,-210.85596,-419.31281)" />
    <path
       sodipodi:type="inkscape:offset"
       inkscape:radius="0"
       inkscape:original="M 267.3125 140.3125 C 251.914 141.15401 231.80098 147.55096 231.6875 165.46875 C 233.24646 187.351 266.62559 191.25542 268.25 196.59375 C 267.74994 205.60163 242.57061 185.4882 236.875 190.46875 C 226.67061 200.61164 230.48667 208.59028 238.5 214.46875 C 243.82351 218.37399 250.98694 221.34625 257.09375 223.40625 C 270.45141 226.90624 282.98235 223.15236 290.5 219.4375 C 298.89372 216.16456 301.91308 205.26656 301.5625 196.15625 C 297.70194 178.15432 269.72568 174.1216 267.25 167.4375 C 267.56085 156.82853 292.28514 180.27343 298.84375 172.9375 C 311.15201 150.54635 295.28773 146.0611 280.21875 141.09375 C 277.04892 140.36481 272.44533 140.032 267.3125 140.3125 z "
       style="font-size:182.18806458px;font-style:normal;font-variant:normal;font-weight:bold;font-stretch:normal;text-align:start;line-height:125%;writing-mode:lr-tb;text-anchor:start;fill:#76bf00;fill-opacity:1;stroke:none;stroke-width:1px;stroke-linecap:butt;stroke-linejoin:miter;stroke-opacity:1;display:inline;font-family:Comic Sans MS;-inkscape-font-specification:Comic Sans MS Bold"
       id="path4705"
       d="M 267.3125,140.3125 C 251.914,141.15401 231.80098,147.55096 231.6875,165.46875 C 233.24646,187.351 266.62559,191.25542 268.25,196.59375 C 267.74994,205.60163 242.57061,185.4882 236.875,190.46875 C 226.67061,200.61164 230.48667,208.59028 238.5,214.46875 C 243.82351,218.37399 250.98694,221.34625 257.09375,223.40625 C 270.45141,226.90624 282.98235,223.15236 290.5,219.4375 C 298.89372,216.16456 301.91308,205.26656 301.5625,196.15625 C 297.70194,178.15432 269.72568,174.1216 267.25,167.4375 C 267.56085,156.82853 292.28514,180.27343 298.84375,172.9375 C 311.15201,150.54635 295.28773,146.0611 280.21875,141.09375 C 277.04892,140.36481 272.44533,140.032 267.3125,140.3125 z"
       transform="matrix(6,0,0,6,-198.85596,-419.31281)" />
    <path
       sodipodi:type="inkscape:offset"
       inkscape:radius="0"
       inkscape:original="M 323.3125 111.28125 C 312.696 111.72459 307.3047 117.19702 307 125.65625 C 308.42163 135.40366 313.52451 139.40527 323.3125 139.96875 C 332.8776 139.26897 336.73692 136.05092 338.28125 125.65625 C 337.36397 117.45202 332.33747 111.84275 323.3125 111.28125 z M 320.5 144.75 C 312.6597 145.15004 304.90251 149.36781 306 156.1875 C 308.66429 172.68244 308.57594 194.44537 305.03125 213.21875 C 300.92133 229.09174 339.59342 228.18558 334.59375 213.21875 C 330.33136 196.17961 331.48179 177.20746 335.5625 156.1875 C 336.25474 147.76765 328.3403 144.34996 320.5 144.75 z "
       style="font-size:179.68840027px;font-style:normal;font-variant:normal;font-weight:bold;font-stretch:normal;text-align:start;line-height:125%;writing-mode:lr-tb;text-anchor:start;fill:#76bf00;fill-opacity:1;stroke:none;stroke-width:1px;stroke-linecap:butt;stroke-linejoin:miter;stroke-opacity:1;display:inline;font-family:Comic Sans MS;-inkscape-font-specification:Comic Sans MS Bold"
       id="path4707"
       d="M 323.3125,111.28125 C 312.696,111.72459 307.3047,117.19702 307,125.65625 C 308.42163,135.40366 313.52451,139.40527 323.3125,139.96875 C 332.8776,139.26897 336.73692,136.05092 338.28125,125.65625 C 337.36397,117.45202 332.33747,111.84275 323.3125,111.28125 z M 320.5,144.75 C 312.6597,145.15004 304.90251,149.36781 306,156.1875 C 308.66429,172.68244 308.57594,194.44537 305.03125,213.21875 C 300.92133,229.09174 339.59342,228.18558 334.59375,213.21875 C 330.33136,196.17961 331.48179,177.20746 335.5625,156.1875 C 336.25474,147.76765 328.3403,144.34996 320.5,144.75 z"
       transform="matrix(6,0,0,6,-186.85596,-419.31281)" />
    <path
       sodipodi:type="inkscape:offset"
       inkscape:radius="0"
       inkscape:original="M 404.59375 98.65625 C 401.06394 98.440888 397.38515 99.414455 394.4375 101.78125 C 391.89483 104.23253 389.33369 104.68957 392.59375 119.5625 C 392.98815 130.69619 394.18219 135.67775 377.625 135.15625 C 350.26405 135.80984 337.65409 158.03481 336.25 182.84375 C 336.5756 206.68247 352.6294 222.85155 375.9375 224.5625 C 384.09192 225.56186 388.17378 223.50837 394.0625 219.3125 C 396.43845 221.35259 399.85594 224.40623 402.90625 224.40625 C 412.59172 224.08039 417.18763 219.14213 416.625 210.21875 C 405.4005 184.31109 430.34832 115.05197 413.84375 102.65625 C 411.50896 100.26397 408.12356 98.871612 404.59375 98.65625 z M 375.8125 164.46875 C 392.40164 163.95601 390.69346 193.3166 376.1875 194.15625 C 360.89633 194.45445 360.21244 164.92738 375.8125 164.46875 z "
       style="font-size:167.25732422px;font-style:normal;font-variant:normal;font-weight:bold;font-stretch:normal;text-align:start;line-height:125%;writing-mode:lr-tb;text-anchor:start;fill:#76bf00;fill-opacity:1;stroke:none;stroke-width:1px;stroke-linecap:butt;stroke-linejoin:miter;stroke-opacity:1;display:inline;font-family:Comic Sans MS;-inkscape-font-specification:Comic Sans MS Bold"
       id="path4709"
       d="M 404.59375,98.65625 C 401.06394,98.440888 397.38515,99.414455 394.4375,101.78125 C 391.89483,104.23253 389.33369,104.68957 392.59375,119.5625 C 392.98815,130.69619 394.18219,135.67775 377.625,135.15625 C 350.26405,135.80984 337.65409,158.03481 336.25,182.84375 C 336.5756,206.68247 352.6294,222.85155 375.9375,224.5625 C 384.09192,225.56186 388.17378,223.50837 394.0625,219.3125 C 396.43845,221.35259 399.85594,224.40623 402.90625,224.40625 C 412.59172,224.08039 417.18763,219.14213 416.625,210.21875 C 405.4005,184.31109 430.34832,115.05197 413.84375,102.65625 C 411.50896,100.26397 408.12356,98.871612 404.59375,98.65625 z M 375.8125,164.46875 C 392.40164,163.95601 390.69346,193.3166 376.1875,194.15625 C 360.89633,194.45445 360.21244,164.92738 375.8125,164.46875 z"
       transform="matrix(6,0,0,6,-174.85596,-419.31281)" />
    <path
       style="font-size:166.08294678px;font-style:normal;font-variant:normal;font-weight:bold;font-stretch:normal;text-align:start;line-height:125%;writing-mode:lr-tb;text-anchor:start;fill:#76bf00;fill-opacity:1;stroke:none;stroke-width:1px;stroke-linecap:butt;stroke-linejoin:miter;stroke-opacity:1;display:inline;font-family:Comic Sans MS;-inkscape-font-specification:Comic Sans MS Bold"
       d="M 2364.742,452.98291 C 2346.6958,630.45547 2308.8724,906.95287 2549.6302,924.75877 C 2580.7776,924.75877 2611.3149,909.48193 2641.0222,900.45463 C 2657.5744,915.93991 2660.6248,932.11405 2707.7466,929.11405 C 2806.9141,931.32523 2791.8354,857.80939 2790.1353,788.50405 C 2764.332,687.37081 2773.8574,554.95111 2786.2492,441.98383 C 2781.6367,381.81679 2632.3461,374.81803 2604.3642,432.96619 C 2585.1873,493.87951 2629.5477,708.27613 2575.0999,721.84273 C 2525.334,707.02801 2576.3925,471.61807 2565.5259,435.44941 C 2559.7668,372.29317 2388.2704,374.45185 2364.742,452.98291 z"
       id="path4518"
       sodipodi:nodetypes="cccccccccc" />
    <path
       sodipodi:type="inkscape:offset"
       inkscape:radius="0"
       inkscape:original="M 535.625 135.46875 C 524.23732 135.46883 513.96588 140.18263 505.78125 149.15625 C 497.58215 158.09362 493.24998 169.51091 493.25 182.1875 C 493.515 207.26713 502.54772 221.42024 528.0625 224.0625 C 533.96042 223.89561 539.428 221.3221 544.625 218.75 C 547.33997 221.77362 550.30423 224.42565 554.5 224.8125 C 562.56066 224.49262 567.20786 218.05557 567.8125 210.5 C 565.36267 199.33728 563.48978 189.62856 562.875 177.96875 C 562.5999 170.29481 563.18892 162.64743 563.625 155.5625 C 562.73982 141.84892 547.15188 136.92119 535.625 135.46875 z M 530.0625 164.90625 C 546.05089 165.81912 544.88029 194.7661 530.21875 194.46875 C 515.51961 194.22004 516.08454 165.56304 530.0625 164.90625 z "
       style="font-size:162.06369019px;font-style:normal;font-variant:normal;font-weight:bold;font-stretch:normal;text-align:start;line-height:125%;writing-mode:lr-tb;text-anchor:start;fill:#76bf00;fill-opacity:1;stroke:none;stroke-width:1px;stroke-linecap:butt;stroke-linejoin:miter;stroke-opacity:1;display:inline;font-family:Comic Sans MS;-inkscape-font-specification:Comic Sans MS Bold"
       id="path4711"
       d="M 535.625,135.46875 C 524.23732,135.46883 513.96588,140.18263 505.78125,149.15625 C 497.58215,158.09362 493.24998,169.51091 493.25,182.1875 C 493.515,207.26713 502.54772,221.42024 528.0625,224.0625 C 533.96042,223.89561 539.428,221.3221 544.625,218.75 C 547.33997,221.77362 550.30423,224.42565 554.5,224.8125 C 562.56066,224.49262 567.20786,218.05557 567.8125,210.5 C 565.36267,199.33728 563.48978,189.62856 562.875,177.96875 C 562.5999,170.29481 563.18892,162.64743 563.625,155.5625 C 562.73982,141.84892 547.15188,136.92119 535.625,135.46875 z M 530.0625,164.90625 C 546.05089,165.81912 544.88029,194.7661 530.21875,194.46875 C 515.51961,194.22004 516.08454,165.56304 530.0625,164.90625 z"
       transform="matrix(6,0,0,6,-150.85596,-419.31281)" />
    <path
       sodipodi:type="inkscape:offset"
       inkscape:radius="0"
       inkscape:original="M 585.25 102.5 C 577.31785 102.25185 569.23125 105.18299 568.8125 111.875 C 572.21749 150.21092 572.52339 183.39278 570.40625 206.3125 L 570.4375 215.4375 C 572.75976 228.08419 600.33778 227.41608 601.40625 216.4375 C 599.54315 198.48034 597.15305 150.39787 600.8125 112.1875 C 600.96749 106.1749 593.18215 102.74815 585.25 102.5 z "
       style="font-size:167.99964905px;font-style:normal;font-variant:normal;font-weight:bold;font-stretch:normal;text-align:start;line-height:125%;writing-mode:lr-tb;text-anchor:start;fill:#71b900;fill-opacity:1;stroke:none;stroke-width:1px;stroke-linecap:butt;stroke-linejoin:miter;stroke-opacity:1;display:inline;font-family:Comic Sans MS;-inkscape-font-specification:Comic Sans MS Bold"
       id="path4713"
       d="M 585.25,102.5 C 577.31785,102.25185 569.23125,105.18299 568.8125,111.875 C 572.21749,150.21092 572.52339,183.39278 570.40625,206.3125 L 570.4375,215.4375 C 572.75976,228.08419 600.33778,227.41608 601.40625,216.4375 C 599.54315,198.48034 597.15305,150.39787 600.8125,112.1875 C 600.96749,106.1749 593.18215,102.74815 585.25,102.5 z"
       transform="matrix(6,0,0,6,-150.85596,-419.31281)" />
  </g>
</svg>
